M48
; DRILL file {KiCad (5.1.6)-1} date 06/19/20 21:21:38
; FORMAT={-:-/ absolute / inch / decimal}
; #@! TF.CreationDate,2020-06-19T21:21:38-04:00
; #@! TF.GenerationSoftware,Kicad,Pcbnew,(5.1.6)-1
; #@! TF.FileFunction,Plated,1,2,PTH
FMAT,2
INCH
T1C0.0157
T2C0.0315
T3C0.0354
T4C0.0394
T5C0.0400
T6C0.0402
T7C0.0472
%
G90
G05
T1
X5.15Y-3.45
X5.15Y-3.52
X5.16Y-3.14
X5.18Y-3.22
X5.38Y-3.19
X5.45Y-2.87
X5.59Y-3.12
X5.82Y-3.64
X5.83Y-3.16
X5.88Y-4.08
X5.96Y-3.6
X6.02Y-4.07
X6.07Y-3.27
X6.11Y-4.35
X6.12Y-2.99
X6.13Y-5.41
X6.15Y-3.35
X6.17Y-4.07
X6.21Y-4.72
X6.31Y-3.84
X6.42Y-3.08
X6.53Y-3.45
X6.6398Y-3.4002
X6.66Y-3.81
X6.68Y-3.58
X6.74Y-3.08
X6.8Y-3.05
X6.81Y-3.56
X6.82Y-2.9016
X6.85Y-3.95
X6.88Y-4.33
X6.89Y-2.96
X6.89Y-3.21
X6.93Y-2.9016
X6.98Y-3.12
X6.98Y-4.34
X7.005Y-2.79
X7.04Y-2.86
X7.0402Y-3.0798
X7.14Y-4.36
T2
X5.95Y-3.95
X5.95Y-4.55
X6.05Y-3.95
X6.05Y-4.55
X6.15Y-3.95
X6.15Y-4.55
X6.25Y-3.95
X6.25Y-4.55
X6.3Y-4.05
X6.35Y-3.95
X6.35Y-4.55
X6.4Y-4.05
X6.45Y-3.95
X6.45Y-4.55
X6.55Y-3.95
X6.55Y-4.55
X6.65Y-3.95
X6.65Y-4.55
X6.75Y-3.95
X6.75Y-4.55
X6.85Y-3.95
X6.85Y-4.55
X6.95Y-3.95
X6.95Y-4.55
X7.05Y-3.95
X7.05Y-4.05
X7.05Y-4.15
X7.05Y-4.25
X7.05Y-4.55
T3
X4.9531Y-2.8804
X4.9531Y-3.0851
X4.9531Y-3.2741
X4.9531Y-3.4788
T5
X5.83Y-5.23
X5.83Y-5.33
X5.83Y-5.43
X5.83Y-5.53
X6.93Y-5.23
X6.93Y-5.33
X6.93Y-5.43
X6.93Y-5.53
X6.13Y-3.75
X6.23Y-3.25
X6.23Y-3.75
X6.33Y-3.25
X6.33Y-3.75
X6.43Y-3.25
X6.43Y-3.75
X6.53Y-3.25
X6.53Y-3.75
X6.63Y-3.25
X6.63Y-3.75
X6.73Y-3.25
X6.73Y-3.75
X6.83Y-3.75
T6
X5.36Y-2.9302
X5.36Y-4.69
X6.02Y-2.94
X6.02Y-4.6998
X7.38Y-2.94
X7.38Y-4.6998
X6.75Y-2.9302
X6.75Y-4.69
T4
G00X7.2228Y-3.2764
M15
G01X7.2228Y-3.3236
M16
G05
G00X7.4Y-3.2764
M15
G01X7.4Y-3.3236
M16
G05
G00X7.5772Y-3.2764
M15
G01X7.5772Y-3.3236
M16
G05
T7
G00X7.2031Y-3.6354
M15
G01X7.2031Y-3.5646
M16
G05
G00X7.4Y-3.6354
M15
G01X7.4Y-3.5646
M16
G05
G00X7.5969Y-3.6354
M15
G01X7.5969Y-3.5646
M16
G05
T0
M30
