%TF.GenerationSoftware,KiCad,Pcbnew,(5.1.6)-1*%
%TF.CreationDate,2020-06-19T21:21:41-04:00*%
%TF.ProjectId,TrialBBConversion,54726961-6c42-4424-936f-6e7665727369,rev?*%
%TF.SameCoordinates,Original*%
%TF.FileFunction,Soldermask,Bot*%
%TF.FilePolarity,Negative*%
%FSLAX46Y46*%
G04 Gerber Fmt 4.6, Leading zero omitted, Abs format (unit mm)*
G04 Created by KiCad (PCBNEW (5.1.6)-1) date 2020-06-19 21:21:41*
%MOMM*%
%LPD*%
G01*
G04 APERTURE LIST*
%ADD10C,8.400000*%
%ADD11C,5.300000*%
%ADD12C,1.800000*%
%ADD13R,2.000000X3.000000*%
%ADD14O,2.199640X1.501140*%
%ADD15O,1.501140X2.199640*%
%ADD16C,1.905000*%
%ADD17C,2.000000*%
%ADD18R,2.000000X2.000000*%
G04 APERTURE END LIST*
D10*
%TO.C,H2*%
X191008000Y-140970000D03*
%TD*%
D11*
%TO.C,H3*%
X124714000Y-98044000D03*
%TD*%
%TO.C,H1*%
X191008000Y-129032000D03*
%TD*%
D12*
%TO.C,SW2*%
X125810000Y-73162000D03*
X125810000Y-78362000D03*
%TD*%
%TO.C,SW3*%
X125810000Y-83162000D03*
X125810000Y-88362000D03*
%TD*%
D13*
%TO.C,SW1*%
X187960000Y-83820000D03*
X192460000Y-83820000D03*
X183460000Y-83820000D03*
%TD*%
D14*
%TO.C,X1*%
X179070000Y-107950000D03*
X179070000Y-105410000D03*
X179070000Y-102870000D03*
D15*
X160020000Y-102870000D03*
X162560000Y-102870000D03*
X151130000Y-100330000D03*
X153670000Y-100330000D03*
X156210000Y-100330000D03*
X158750000Y-100330000D03*
X161290000Y-100330000D03*
X163830000Y-100330000D03*
X166370000Y-100330000D03*
X168910000Y-100330000D03*
X171450000Y-100330000D03*
X173990000Y-100330000D03*
X176530000Y-100330000D03*
X179070000Y-100330000D03*
X179070000Y-115570000D03*
X176530000Y-115570000D03*
X173990000Y-115570000D03*
X171450000Y-115570000D03*
X168910000Y-115570000D03*
X166370000Y-115570000D03*
X163830000Y-115570000D03*
X161290000Y-115570000D03*
X158750000Y-115570000D03*
X156210000Y-115570000D03*
X153670000Y-115570000D03*
X151130000Y-115570000D03*
%TD*%
%TO.C,U3*%
G36*
G01*
X183960000Y-89940000D02*
X183960000Y-92940000D01*
G75*
G02*
X183460000Y-93440000I-500000J0D01*
G01*
X182460000Y-93440000D01*
G75*
G02*
X181960000Y-92940000I0J500000D01*
G01*
X181960000Y-89940000D01*
G75*
G02*
X182460000Y-89440000I500000J0D01*
G01*
X183460000Y-89440000D01*
G75*
G02*
X183960000Y-89940000I0J-500000D01*
G01*
G37*
G36*
G01*
X188960000Y-89940000D02*
X188960000Y-92940000D01*
G75*
G02*
X188460000Y-93440000I-500000J0D01*
G01*
X187460000Y-93440000D01*
G75*
G02*
X186960000Y-92940000I0J500000D01*
G01*
X186960000Y-89940000D01*
G75*
G02*
X187460000Y-89440000I500000J0D01*
G01*
X188460000Y-89440000D01*
G75*
G02*
X188960000Y-89940000I0J-500000D01*
G01*
G37*
G36*
G01*
X193960000Y-89940000D02*
X193960000Y-92940000D01*
G75*
G02*
X193460000Y-93440000I-500000J0D01*
G01*
X192460000Y-93440000D01*
G75*
G02*
X191960000Y-92940000I0J500000D01*
G01*
X191960000Y-89940000D01*
G75*
G02*
X192460000Y-89440000I500000J0D01*
G01*
X193460000Y-89440000D01*
G75*
G02*
X193960000Y-89940000I0J-500000D01*
G01*
G37*
%TD*%
D16*
%TO.C,U2*%
X176022000Y-140462000D03*
X176022000Y-137922000D03*
X176022000Y-135382000D03*
X176022000Y-132842000D03*
X148082000Y-132842000D03*
X148082000Y-135382000D03*
X148082000Y-137922000D03*
X148082000Y-140462000D03*
%TD*%
%TO.C,U1*%
X158242000Y-82550000D03*
X160782000Y-82550000D03*
X163322000Y-82550000D03*
X165862000Y-82550000D03*
X168402000Y-82550000D03*
X170942000Y-82550000D03*
X173482000Y-95250000D03*
X170942000Y-95250000D03*
X168402000Y-95250000D03*
X165862000Y-95250000D03*
X163322000Y-95250000D03*
X160782000Y-95250000D03*
X158242000Y-95250000D03*
X155702000Y-95250000D03*
%TD*%
D17*
%TO.C,BT4*%
X187452000Y-119376000D03*
D18*
X187452000Y-74676000D03*
%TD*%
D17*
%TO.C,BT3*%
X136144000Y-74426000D03*
D18*
X136144000Y-119126000D03*
%TD*%
D17*
%TO.C,BT2*%
X171450000Y-74426000D03*
D18*
X171450000Y-119126000D03*
%TD*%
D17*
%TO.C,BT1*%
X152908000Y-119376000D03*
D18*
X152908000Y-74676000D03*
%TD*%
M02*
