%TF.GenerationSoftware,KiCad,Pcbnew,(5.1.6)-1*%
%TF.CreationDate,2020-06-19T21:21:41-04:00*%
%TF.ProjectId,TrialBBConversion,54726961-6c42-4424-936f-6e7665727369,rev?*%
%TF.SameCoordinates,Original*%
%TF.FileFunction,Legend,Bot*%
%TF.FilePolarity,Positive*%
%FSLAX46Y46*%
G04 Gerber Fmt 4.6, Leading zero omitted, Abs format (unit mm)*
G04 Created by KiCad (PCBNEW (5.1.6)-1) date 2020-06-19 21:21:41*
%MOMM*%
%LPD*%
G01*
G04 APERTURE LIST*
%ADD10C,0.120000*%
%ADD11C,0.150000*%
G04 APERTURE END LIST*
D10*
%TO.C,U2*%
X145542000Y-149352000D02*
X162052000Y-149352000D01*
X145542000Y-123952000D02*
X145542000Y-149352000D01*
X178562000Y-123952000D02*
X145542000Y-123952000D01*
X178562000Y-149352000D02*
X178562000Y-123952000D01*
X162052000Y-149352000D02*
X178562000Y-149352000D01*
X176022000Y-141732000D02*
X148082000Y-141732000D01*
X176022000Y-131572000D02*
X176022000Y-141732000D01*
X148082000Y-131572000D02*
X176022000Y-131572000D01*
X148082000Y-141732000D02*
X148082000Y-131572000D01*
%TO.C,BT4*%
X193452000Y-120676000D02*
X193452000Y-117676000D01*
X181452000Y-120676000D02*
X193452000Y-120676000D01*
X181452000Y-120676000D02*
X181452000Y-117676000D01*
X193452000Y-72676000D02*
X193452000Y-75676000D01*
X181452000Y-72676000D02*
X193452000Y-72676000D01*
X181452000Y-72676000D02*
X181452000Y-75676000D01*
X191452000Y-115676000D02*
X191452000Y-105676000D01*
X183452000Y-115676000D02*
X183452000Y-105676000D01*
X183452000Y-77676000D02*
X183452000Y-87676000D01*
X191452000Y-77676000D02*
X191452000Y-87676000D01*
X181452000Y-103676000D02*
X181452000Y-89676000D01*
X193452000Y-89676000D02*
X193452000Y-103676000D01*
X189452000Y-73676000D02*
X189452000Y-72676000D01*
X185452000Y-72676000D02*
X185452000Y-73676000D01*
X183452000Y-117676000D02*
X191452000Y-117676000D01*
X190452000Y-116676000D02*
X184452000Y-116676000D01*
X185452000Y-115676000D02*
X189452000Y-115676000D01*
X186452000Y-114676000D02*
X188452000Y-114676000D01*
X180852000Y-122076000D02*
X180852000Y-71876000D01*
X180852000Y-71876000D02*
X194052000Y-71876000D01*
X194052000Y-71876000D02*
X194052000Y-122076000D01*
X194052000Y-122076000D02*
X180852000Y-122076000D01*
X181452000Y-75676000D02*
G75*
G02*
X183452000Y-77676000I0J-2000000D01*
G01*
X183452000Y-115676000D02*
G75*
G02*
X181452000Y-117676000I-2000000J0D01*
G01*
X193452000Y-117676000D02*
G75*
G02*
X191452000Y-115676000I0J2000000D01*
G01*
X191452000Y-77676000D02*
G75*
G02*
X193452000Y-75676000I2000000J0D01*
G01*
X191452000Y-105676000D02*
G75*
G02*
X193452000Y-103676000I2000000J0D01*
G01*
X193452000Y-89676000D02*
G75*
G02*
X191452000Y-87676000I0J2000000D01*
G01*
X183452000Y-87676000D02*
G75*
G02*
X181452000Y-89676000I-2000000J0D01*
G01*
X181452000Y-103676000D02*
G75*
G02*
X183452000Y-105676000I0J-2000000D01*
G01*
%TO.C,BT3*%
X130144000Y-73126000D02*
X130144000Y-76126000D01*
X142144000Y-73126000D02*
X130144000Y-73126000D01*
X142144000Y-73126000D02*
X142144000Y-76126000D01*
X130144000Y-121126000D02*
X130144000Y-118126000D01*
X142144000Y-121126000D02*
X130144000Y-121126000D01*
X142144000Y-121126000D02*
X142144000Y-118126000D01*
X132144000Y-78126000D02*
X132144000Y-88126000D01*
X140144000Y-78126000D02*
X140144000Y-88126000D01*
X140144000Y-116126000D02*
X140144000Y-106126000D01*
X132144000Y-116126000D02*
X132144000Y-106126000D01*
X142144000Y-90126000D02*
X142144000Y-104126000D01*
X130144000Y-104126000D02*
X130144000Y-90126000D01*
X134144000Y-120126000D02*
X134144000Y-121126000D01*
X138144000Y-121126000D02*
X138144000Y-120126000D01*
X140144000Y-76126000D02*
X132144000Y-76126000D01*
X133144000Y-77126000D02*
X139144000Y-77126000D01*
X138144000Y-78126000D02*
X134144000Y-78126000D01*
X137144000Y-79126000D02*
X135144000Y-79126000D01*
X142744000Y-71726000D02*
X142744000Y-121926000D01*
X142744000Y-121926000D02*
X129544000Y-121926000D01*
X129544000Y-121926000D02*
X129544000Y-71726000D01*
X129544000Y-71726000D02*
X142744000Y-71726000D01*
X142144000Y-118126000D02*
G75*
G02*
X140144000Y-116126000I0J2000000D01*
G01*
X140144000Y-78126000D02*
G75*
G02*
X142144000Y-76126000I2000000J0D01*
G01*
X130144000Y-76126000D02*
G75*
G02*
X132144000Y-78126000I0J-2000000D01*
G01*
X132144000Y-116126000D02*
G75*
G02*
X130144000Y-118126000I-2000000J0D01*
G01*
X132144000Y-88126000D02*
G75*
G02*
X130144000Y-90126000I-2000000J0D01*
G01*
X130144000Y-104126000D02*
G75*
G02*
X132144000Y-106126000I0J-2000000D01*
G01*
X140144000Y-106126000D02*
G75*
G02*
X142144000Y-104126000I2000000J0D01*
G01*
X142144000Y-90126000D02*
G75*
G02*
X140144000Y-88126000I0J2000000D01*
G01*
%TO.C,BT2*%
X165450000Y-73126000D02*
X165450000Y-76126000D01*
X177450000Y-73126000D02*
X165450000Y-73126000D01*
X177450000Y-73126000D02*
X177450000Y-76126000D01*
X165450000Y-121126000D02*
X165450000Y-118126000D01*
X177450000Y-121126000D02*
X165450000Y-121126000D01*
X177450000Y-121126000D02*
X177450000Y-118126000D01*
X167450000Y-78126000D02*
X167450000Y-88126000D01*
X175450000Y-78126000D02*
X175450000Y-88126000D01*
X175450000Y-116126000D02*
X175450000Y-106126000D01*
X167450000Y-116126000D02*
X167450000Y-106126000D01*
X177450000Y-90126000D02*
X177450000Y-104126000D01*
X165450000Y-104126000D02*
X165450000Y-90126000D01*
X169450000Y-120126000D02*
X169450000Y-121126000D01*
X173450000Y-121126000D02*
X173450000Y-120126000D01*
X175450000Y-76126000D02*
X167450000Y-76126000D01*
X168450000Y-77126000D02*
X174450000Y-77126000D01*
X173450000Y-78126000D02*
X169450000Y-78126000D01*
X172450000Y-79126000D02*
X170450000Y-79126000D01*
X178050000Y-71726000D02*
X178050000Y-121926000D01*
X178050000Y-121926000D02*
X164850000Y-121926000D01*
X164850000Y-121926000D02*
X164850000Y-71726000D01*
X164850000Y-71726000D02*
X178050000Y-71726000D01*
X177450000Y-118126000D02*
G75*
G02*
X175450000Y-116126000I0J2000000D01*
G01*
X175450000Y-78126000D02*
G75*
G02*
X177450000Y-76126000I2000000J0D01*
G01*
X165450000Y-76126000D02*
G75*
G02*
X167450000Y-78126000I0J-2000000D01*
G01*
X167450000Y-116126000D02*
G75*
G02*
X165450000Y-118126000I-2000000J0D01*
G01*
X167450000Y-88126000D02*
G75*
G02*
X165450000Y-90126000I-2000000J0D01*
G01*
X165450000Y-104126000D02*
G75*
G02*
X167450000Y-106126000I0J-2000000D01*
G01*
X175450000Y-106126000D02*
G75*
G02*
X177450000Y-104126000I2000000J0D01*
G01*
X177450000Y-90126000D02*
G75*
G02*
X175450000Y-88126000I0J2000000D01*
G01*
%TO.C,BT1*%
X158908000Y-120676000D02*
X158908000Y-117676000D01*
X146908000Y-120676000D02*
X158908000Y-120676000D01*
X146908000Y-120676000D02*
X146908000Y-117676000D01*
X158908000Y-72676000D02*
X158908000Y-75676000D01*
X146908000Y-72676000D02*
X158908000Y-72676000D01*
X146908000Y-72676000D02*
X146908000Y-75676000D01*
X156908000Y-115676000D02*
X156908000Y-105676000D01*
X148908000Y-115676000D02*
X148908000Y-105676000D01*
X148908000Y-77676000D02*
X148908000Y-87676000D01*
X156908000Y-77676000D02*
X156908000Y-87676000D01*
X146908000Y-103676000D02*
X146908000Y-89676000D01*
X158908000Y-89676000D02*
X158908000Y-103676000D01*
X154908000Y-73676000D02*
X154908000Y-72676000D01*
X150908000Y-72676000D02*
X150908000Y-73676000D01*
X148908000Y-117676000D02*
X156908000Y-117676000D01*
X155908000Y-116676000D02*
X149908000Y-116676000D01*
X150908000Y-115676000D02*
X154908000Y-115676000D01*
X151908000Y-114676000D02*
X153908000Y-114676000D01*
X146308000Y-122076000D02*
X146308000Y-71876000D01*
X146308000Y-71876000D02*
X159508000Y-71876000D01*
X159508000Y-71876000D02*
X159508000Y-122076000D01*
X159508000Y-122076000D02*
X146308000Y-122076000D01*
X146908000Y-75676000D02*
G75*
G02*
X148908000Y-77676000I0J-2000000D01*
G01*
X148908000Y-115676000D02*
G75*
G02*
X146908000Y-117676000I-2000000J0D01*
G01*
X158908000Y-117676000D02*
G75*
G02*
X156908000Y-115676000I0J2000000D01*
G01*
X156908000Y-77676000D02*
G75*
G02*
X158908000Y-75676000I2000000J0D01*
G01*
X156908000Y-105676000D02*
G75*
G02*
X158908000Y-103676000I2000000J0D01*
G01*
X158908000Y-89676000D02*
G75*
G02*
X156908000Y-87676000I0J2000000D01*
G01*
X148908000Y-87676000D02*
G75*
G02*
X146908000Y-89676000I-2000000J0D01*
G01*
X146908000Y-103676000D02*
G75*
G02*
X148908000Y-105676000I0J-2000000D01*
G01*
%TO.C,U2*%
D11*
X162813904Y-136874380D02*
X162813904Y-137683904D01*
X162766285Y-137779142D01*
X162718666Y-137826761D01*
X162623428Y-137874380D01*
X162432952Y-137874380D01*
X162337714Y-137826761D01*
X162290095Y-137779142D01*
X162242476Y-137683904D01*
X162242476Y-136874380D01*
X161813904Y-136969619D02*
X161766285Y-136922000D01*
X161671047Y-136874380D01*
X161432952Y-136874380D01*
X161337714Y-136922000D01*
X161290095Y-136969619D01*
X161242476Y-137064857D01*
X161242476Y-137160095D01*
X161290095Y-137302952D01*
X161861523Y-137874380D01*
X161242476Y-137874380D01*
%TO.C,BT4*%
X179380571Y-73890285D02*
X179428190Y-74033142D01*
X179475809Y-74080761D01*
X179571047Y-74128380D01*
X179713904Y-74128380D01*
X179809142Y-74080761D01*
X179856761Y-74033142D01*
X179904380Y-73937904D01*
X179904380Y-73556952D01*
X178904380Y-73556952D01*
X178904380Y-73890285D01*
X178952000Y-73985523D01*
X178999619Y-74033142D01*
X179094857Y-74080761D01*
X179190095Y-74080761D01*
X179285333Y-74033142D01*
X179332952Y-73985523D01*
X179380571Y-73890285D01*
X179380571Y-73556952D01*
X178904380Y-74414095D02*
X178904380Y-74985523D01*
X179904380Y-74699809D02*
X178904380Y-74699809D01*
X179237714Y-75747428D02*
X179904380Y-75747428D01*
X178856761Y-75509333D02*
X179571047Y-75271238D01*
X179571047Y-75890285D01*
X187523428Y-70485047D02*
X187523428Y-71246952D01*
X187904380Y-70866000D02*
X187142476Y-70866000D01*
X187523428Y-122555047D02*
X187523428Y-123316952D01*
%TO.C,BT3*%
X144215428Y-119911714D02*
X144167809Y-119768857D01*
X144120190Y-119721238D01*
X144024952Y-119673619D01*
X143882095Y-119673619D01*
X143786857Y-119721238D01*
X143739238Y-119768857D01*
X143691619Y-119864095D01*
X143691619Y-120245047D01*
X144691619Y-120245047D01*
X144691619Y-119911714D01*
X144644000Y-119816476D01*
X144596380Y-119768857D01*
X144501142Y-119721238D01*
X144405904Y-119721238D01*
X144310666Y-119768857D01*
X144263047Y-119816476D01*
X144215428Y-119911714D01*
X144215428Y-120245047D01*
X144691619Y-119387904D02*
X144691619Y-118816476D01*
X143691619Y-119102190D02*
X144691619Y-119102190D01*
X144691619Y-118578380D02*
X144691619Y-117959333D01*
X144310666Y-118292666D01*
X144310666Y-118149809D01*
X144263047Y-118054571D01*
X144215428Y-118006952D01*
X144120190Y-117959333D01*
X143882095Y-117959333D01*
X143786857Y-118006952D01*
X143739238Y-118054571D01*
X143691619Y-118149809D01*
X143691619Y-118435523D01*
X143739238Y-118530761D01*
X143786857Y-118578380D01*
X136215428Y-122555047D02*
X136215428Y-123316952D01*
X136596380Y-122936000D02*
X135834476Y-122936000D01*
X136215428Y-70485047D02*
X136215428Y-71246952D01*
%TO.C,BT2*%
X179521428Y-119911714D02*
X179473809Y-119768857D01*
X179426190Y-119721238D01*
X179330952Y-119673619D01*
X179188095Y-119673619D01*
X179092857Y-119721238D01*
X179045238Y-119768857D01*
X178997619Y-119864095D01*
X178997619Y-120245047D01*
X179997619Y-120245047D01*
X179997619Y-119911714D01*
X179950000Y-119816476D01*
X179902380Y-119768857D01*
X179807142Y-119721238D01*
X179711904Y-119721238D01*
X179616666Y-119768857D01*
X179569047Y-119816476D01*
X179521428Y-119911714D01*
X179521428Y-120245047D01*
X179997619Y-119387904D02*
X179997619Y-118816476D01*
X178997619Y-119102190D02*
X179997619Y-119102190D01*
X179902380Y-118530761D02*
X179950000Y-118483142D01*
X179997619Y-118387904D01*
X179997619Y-118149809D01*
X179950000Y-118054571D01*
X179902380Y-118006952D01*
X179807142Y-117959333D01*
X179711904Y-117959333D01*
X179569047Y-118006952D01*
X178997619Y-118578380D01*
X178997619Y-117959333D01*
X171521428Y-122555047D02*
X171521428Y-123316952D01*
X171902380Y-122936000D02*
X171140476Y-122936000D01*
X171521428Y-70485047D02*
X171521428Y-71246952D01*
%TO.C,BT1*%
X144836571Y-73890285D02*
X144884190Y-74033142D01*
X144931809Y-74080761D01*
X145027047Y-74128380D01*
X145169904Y-74128380D01*
X145265142Y-74080761D01*
X145312761Y-74033142D01*
X145360380Y-73937904D01*
X145360380Y-73556952D01*
X144360380Y-73556952D01*
X144360380Y-73890285D01*
X144408000Y-73985523D01*
X144455619Y-74033142D01*
X144550857Y-74080761D01*
X144646095Y-74080761D01*
X144741333Y-74033142D01*
X144788952Y-73985523D01*
X144836571Y-73890285D01*
X144836571Y-73556952D01*
X144360380Y-74414095D02*
X144360380Y-74985523D01*
X145360380Y-74699809D02*
X144360380Y-74699809D01*
X145360380Y-75842666D02*
X145360380Y-75271238D01*
X145360380Y-75556952D02*
X144360380Y-75556952D01*
X144503238Y-75461714D01*
X144598476Y-75366476D01*
X144646095Y-75271238D01*
X152979428Y-70485047D02*
X152979428Y-71246952D01*
X153360380Y-70866000D02*
X152598476Y-70866000D01*
X152979428Y-122555047D02*
X152979428Y-123316952D01*
%TD*%
M02*
