%TF.GenerationSoftware,KiCad,Pcbnew,(5.1.6)-1*%
%TF.CreationDate,2020-06-19T21:21:41-04:00*%
%TF.ProjectId,TrialBBConversion,54726961-6c42-4424-936f-6e7665727369,rev?*%
%TF.SameCoordinates,Original*%
%TF.FileFunction,Paste,Top*%
%TF.FilePolarity,Positive*%
%FSLAX46Y46*%
G04 Gerber Fmt 4.6, Leading zero omitted, Abs format (unit mm)*
G04 Created by KiCad (PCBNEW (5.1.6)-1) date 2020-06-19 21:21:41*
%MOMM*%
%LPD*%
G01*
G04 APERTURE LIST*
%ADD10R,2.500000X1.500000*%
%ADD11R,0.700000X1.800000*%
%ADD12R,1.060000X0.650000*%
G04 APERTURE END LIST*
%TO.C,R13*%
G36*
G01*
X142237500Y-101875000D02*
X142237500Y-103125000D01*
G75*
G02*
X141987500Y-103375000I-250000J0D01*
G01*
X141062500Y-103375000D01*
G75*
G02*
X140812500Y-103125000I0J250000D01*
G01*
X140812500Y-101875000D01*
G75*
G02*
X141062500Y-101625000I250000J0D01*
G01*
X141987500Y-101625000D01*
G75*
G02*
X142237500Y-101875000I0J-250000D01*
G01*
G37*
G36*
G01*
X145212500Y-101875000D02*
X145212500Y-103125000D01*
G75*
G02*
X144962500Y-103375000I-250000J0D01*
G01*
X144037500Y-103375000D01*
G75*
G02*
X143787500Y-103125000I0J250000D01*
G01*
X143787500Y-101875000D01*
G75*
G02*
X144037500Y-101625000I250000J0D01*
G01*
X144962500Y-101625000D01*
G75*
G02*
X145212500Y-101875000I0J-250000D01*
G01*
G37*
%TD*%
%TO.C,R12*%
G36*
G01*
X141737500Y-95375000D02*
X141737500Y-96625000D01*
G75*
G02*
X141487500Y-96875000I-250000J0D01*
G01*
X140562500Y-96875000D01*
G75*
G02*
X140312500Y-96625000I0J250000D01*
G01*
X140312500Y-95375000D01*
G75*
G02*
X140562500Y-95125000I250000J0D01*
G01*
X141487500Y-95125000D01*
G75*
G02*
X141737500Y-95375000I0J-250000D01*
G01*
G37*
G36*
G01*
X144712500Y-95375000D02*
X144712500Y-96625000D01*
G75*
G02*
X144462500Y-96875000I-250000J0D01*
G01*
X143537500Y-96875000D01*
G75*
G02*
X143287500Y-96625000I0J250000D01*
G01*
X143287500Y-95375000D01*
G75*
G02*
X143537500Y-95125000I250000J0D01*
G01*
X144462500Y-95125000D01*
G75*
G02*
X144712500Y-95375000I0J-250000D01*
G01*
G37*
%TD*%
%TO.C,R2*%
G36*
G01*
X142712500Y-84375000D02*
X142712500Y-85625000D01*
G75*
G02*
X142462500Y-85875000I-250000J0D01*
G01*
X141537500Y-85875000D01*
G75*
G02*
X141287500Y-85625000I0J250000D01*
G01*
X141287500Y-84375000D01*
G75*
G02*
X141537500Y-84125000I250000J0D01*
G01*
X142462500Y-84125000D01*
G75*
G02*
X142712500Y-84375000I0J-250000D01*
G01*
G37*
G36*
G01*
X145687500Y-84375000D02*
X145687500Y-85625000D01*
G75*
G02*
X145437500Y-85875000I-250000J0D01*
G01*
X144512500Y-85875000D01*
G75*
G02*
X144262500Y-85625000I0J250000D01*
G01*
X144262500Y-84375000D01*
G75*
G02*
X144512500Y-84125000I250000J0D01*
G01*
X145437500Y-84125000D01*
G75*
G02*
X145687500Y-84375000I0J-250000D01*
G01*
G37*
%TD*%
%TO.C,R1*%
G36*
G01*
X143994500Y-78095000D02*
X143994500Y-76845000D01*
G75*
G02*
X144244500Y-76595000I250000J0D01*
G01*
X145169500Y-76595000D01*
G75*
G02*
X145419500Y-76845000I0J-250000D01*
G01*
X145419500Y-78095000D01*
G75*
G02*
X145169500Y-78345000I-250000J0D01*
G01*
X144244500Y-78345000D01*
G75*
G02*
X143994500Y-78095000I0J250000D01*
G01*
G37*
G36*
G01*
X141019500Y-78095000D02*
X141019500Y-76845000D01*
G75*
G02*
X141269500Y-76595000I250000J0D01*
G01*
X142194500Y-76595000D01*
G75*
G02*
X142444500Y-76845000I0J-250000D01*
G01*
X142444500Y-78095000D01*
G75*
G02*
X142194500Y-78345000I-250000J0D01*
G01*
X141269500Y-78345000D01*
G75*
G02*
X141019500Y-78095000I0J250000D01*
G01*
G37*
%TD*%
D10*
%TO.C,D11*%
X134874000Y-102500000D03*
D11*
X131624000Y-102500000D03*
X137224000Y-102500000D03*
%TD*%
D10*
%TO.C,D10*%
X135000000Y-96000000D03*
D11*
X131750000Y-96000000D03*
X137350000Y-96000000D03*
%TD*%
D10*
%TO.C,D2*%
X135000000Y-85500000D03*
D11*
X131750000Y-85500000D03*
X137350000Y-85500000D03*
%TD*%
D10*
%TO.C,D1*%
X135128000Y-77216000D03*
D11*
X131878000Y-77216000D03*
X137478000Y-77216000D03*
%TD*%
%TO.C,R11*%
G36*
G01*
X183787500Y-78125000D02*
X183787500Y-76875000D01*
G75*
G02*
X184037500Y-76625000I250000J0D01*
G01*
X184962500Y-76625000D01*
G75*
G02*
X185212500Y-76875000I0J-250000D01*
G01*
X185212500Y-78125000D01*
G75*
G02*
X184962500Y-78375000I-250000J0D01*
G01*
X184037500Y-78375000D01*
G75*
G02*
X183787500Y-78125000I0J250000D01*
G01*
G37*
G36*
G01*
X180812500Y-78125000D02*
X180812500Y-76875000D01*
G75*
G02*
X181062500Y-76625000I250000J0D01*
G01*
X181987500Y-76625000D01*
G75*
G02*
X182237500Y-76875000I0J-250000D01*
G01*
X182237500Y-78125000D01*
G75*
G02*
X181987500Y-78375000I-250000J0D01*
G01*
X181062500Y-78375000D01*
G75*
G02*
X180812500Y-78125000I0J250000D01*
G01*
G37*
%TD*%
%TO.C,R10*%
G36*
G01*
X140212500Y-145375000D02*
X140212500Y-146625000D01*
G75*
G02*
X139962500Y-146875000I-250000J0D01*
G01*
X139037500Y-146875000D01*
G75*
G02*
X138787500Y-146625000I0J250000D01*
G01*
X138787500Y-145375000D01*
G75*
G02*
X139037500Y-145125000I250000J0D01*
G01*
X139962500Y-145125000D01*
G75*
G02*
X140212500Y-145375000I0J-250000D01*
G01*
G37*
G36*
G01*
X143187500Y-145375000D02*
X143187500Y-146625000D01*
G75*
G02*
X142937500Y-146875000I-250000J0D01*
G01*
X142012500Y-146875000D01*
G75*
G02*
X141762500Y-146625000I0J250000D01*
G01*
X141762500Y-145375000D01*
G75*
G02*
X142012500Y-145125000I250000J0D01*
G01*
X142937500Y-145125000D01*
G75*
G02*
X143187500Y-145375000I0J-250000D01*
G01*
G37*
%TD*%
%TO.C,R9*%
G36*
G01*
X140212500Y-139375000D02*
X140212500Y-140625000D01*
G75*
G02*
X139962500Y-140875000I-250000J0D01*
G01*
X139037500Y-140875000D01*
G75*
G02*
X138787500Y-140625000I0J250000D01*
G01*
X138787500Y-139375000D01*
G75*
G02*
X139037500Y-139125000I250000J0D01*
G01*
X139962500Y-139125000D01*
G75*
G02*
X140212500Y-139375000I0J-250000D01*
G01*
G37*
G36*
G01*
X143187500Y-139375000D02*
X143187500Y-140625000D01*
G75*
G02*
X142937500Y-140875000I-250000J0D01*
G01*
X142012500Y-140875000D01*
G75*
G02*
X141762500Y-140625000I0J250000D01*
G01*
X141762500Y-139375000D01*
G75*
G02*
X142012500Y-139125000I250000J0D01*
G01*
X142937500Y-139125000D01*
G75*
G02*
X143187500Y-139375000I0J-250000D01*
G01*
G37*
%TD*%
%TO.C,R6*%
G36*
G01*
X140212500Y-133875000D02*
X140212500Y-135125000D01*
G75*
G02*
X139962500Y-135375000I-250000J0D01*
G01*
X139037500Y-135375000D01*
G75*
G02*
X138787500Y-135125000I0J250000D01*
G01*
X138787500Y-133875000D01*
G75*
G02*
X139037500Y-133625000I250000J0D01*
G01*
X139962500Y-133625000D01*
G75*
G02*
X140212500Y-133875000I0J-250000D01*
G01*
G37*
G36*
G01*
X143187500Y-133875000D02*
X143187500Y-135125000D01*
G75*
G02*
X142937500Y-135375000I-250000J0D01*
G01*
X142012500Y-135375000D01*
G75*
G02*
X141762500Y-135125000I0J250000D01*
G01*
X141762500Y-133875000D01*
G75*
G02*
X142012500Y-133625000I250000J0D01*
G01*
X142937500Y-133625000D01*
G75*
G02*
X143187500Y-133875000I0J-250000D01*
G01*
G37*
%TD*%
%TO.C,R5*%
G36*
G01*
X140225000Y-128875000D02*
X140225000Y-130125000D01*
G75*
G02*
X139975000Y-130375000I-250000J0D01*
G01*
X139050000Y-130375000D01*
G75*
G02*
X138800000Y-130125000I0J250000D01*
G01*
X138800000Y-128875000D01*
G75*
G02*
X139050000Y-128625000I250000J0D01*
G01*
X139975000Y-128625000D01*
G75*
G02*
X140225000Y-128875000I0J-250000D01*
G01*
G37*
G36*
G01*
X143200000Y-128875000D02*
X143200000Y-130125000D01*
G75*
G02*
X142950000Y-130375000I-250000J0D01*
G01*
X142025000Y-130375000D01*
G75*
G02*
X141775000Y-130125000I0J250000D01*
G01*
X141775000Y-128875000D01*
G75*
G02*
X142025000Y-128625000I250000J0D01*
G01*
X142950000Y-128625000D01*
G75*
G02*
X143200000Y-128875000I0J-250000D01*
G01*
G37*
%TD*%
%TO.C,R4*%
G36*
G01*
X140158500Y-122311000D02*
X140158500Y-123561000D01*
G75*
G02*
X139908500Y-123811000I-250000J0D01*
G01*
X138983500Y-123811000D01*
G75*
G02*
X138733500Y-123561000I0J250000D01*
G01*
X138733500Y-122311000D01*
G75*
G02*
X138983500Y-122061000I250000J0D01*
G01*
X139908500Y-122061000D01*
G75*
G02*
X140158500Y-122311000I0J-250000D01*
G01*
G37*
G36*
G01*
X143133500Y-122311000D02*
X143133500Y-123561000D01*
G75*
G02*
X142883500Y-123811000I-250000J0D01*
G01*
X141958500Y-123811000D01*
G75*
G02*
X141708500Y-123561000I0J250000D01*
G01*
X141708500Y-122311000D01*
G75*
G02*
X141958500Y-122061000I250000J0D01*
G01*
X142883500Y-122061000D01*
G75*
G02*
X143133500Y-122311000I0J-250000D01*
G01*
G37*
%TD*%
%TO.C,R3*%
G36*
G01*
X139737500Y-116375000D02*
X139737500Y-117625000D01*
G75*
G02*
X139487500Y-117875000I-250000J0D01*
G01*
X138562500Y-117875000D01*
G75*
G02*
X138312500Y-117625000I0J250000D01*
G01*
X138312500Y-116375000D01*
G75*
G02*
X138562500Y-116125000I250000J0D01*
G01*
X139487500Y-116125000D01*
G75*
G02*
X139737500Y-116375000I0J-250000D01*
G01*
G37*
G36*
G01*
X142712500Y-116375000D02*
X142712500Y-117625000D01*
G75*
G02*
X142462500Y-117875000I-250000J0D01*
G01*
X141537500Y-117875000D01*
G75*
G02*
X141287500Y-117625000I0J250000D01*
G01*
X141287500Y-116375000D01*
G75*
G02*
X141537500Y-116125000I250000J0D01*
G01*
X142462500Y-116125000D01*
G75*
G02*
X142712500Y-116375000I0J-250000D01*
G01*
G37*
%TD*%
D10*
%TO.C,D9*%
X182880000Y-72644000D03*
D11*
X179630000Y-72644000D03*
X185230000Y-72644000D03*
%TD*%
D10*
%TO.C,D8*%
X131500000Y-146177000D03*
D11*
X128250000Y-146177000D03*
X133850000Y-146177000D03*
%TD*%
D10*
%TO.C,D7*%
X131500000Y-140335000D03*
D11*
X128250000Y-140335000D03*
X133850000Y-140335000D03*
%TD*%
D10*
%TO.C,D6*%
X131445000Y-134874000D03*
D11*
X128195000Y-134874000D03*
X133795000Y-134874000D03*
%TD*%
D10*
%TO.C,D5*%
X131600000Y-129500000D03*
D11*
X128350000Y-129500000D03*
X133950000Y-129500000D03*
%TD*%
D10*
%TO.C,D4*%
X131500000Y-123000000D03*
D11*
X128250000Y-123000000D03*
X133850000Y-123000000D03*
%TD*%
D10*
%TO.C,D3*%
X131500000Y-117000000D03*
D11*
X128250000Y-117000000D03*
X133850000Y-117000000D03*
%TD*%
D12*
%TO.C,U4*%
X173900000Y-77950000D03*
X173900000Y-76050000D03*
X176100000Y-76050000D03*
X176100000Y-77000000D03*
X176100000Y-77950000D03*
%TD*%
%TO.C,R8*%
G36*
G01*
X159561500Y-74285000D02*
X159561500Y-73035000D01*
G75*
G02*
X159811500Y-72785000I250000J0D01*
G01*
X160736500Y-72785000D01*
G75*
G02*
X160986500Y-73035000I0J-250000D01*
G01*
X160986500Y-74285000D01*
G75*
G02*
X160736500Y-74535000I-250000J0D01*
G01*
X159811500Y-74535000D01*
G75*
G02*
X159561500Y-74285000I0J250000D01*
G01*
G37*
G36*
G01*
X156586500Y-74285000D02*
X156586500Y-73035000D01*
G75*
G02*
X156836500Y-72785000I250000J0D01*
G01*
X157761500Y-72785000D01*
G75*
G02*
X158011500Y-73035000I0J-250000D01*
G01*
X158011500Y-74285000D01*
G75*
G02*
X157761500Y-74535000I-250000J0D01*
G01*
X156836500Y-74535000D01*
G75*
G02*
X156586500Y-74285000I0J250000D01*
G01*
G37*
%TD*%
%TO.C,R7*%
G36*
G01*
X167689500Y-77333000D02*
X167689500Y-76083000D01*
G75*
G02*
X167939500Y-75833000I250000J0D01*
G01*
X168864500Y-75833000D01*
G75*
G02*
X169114500Y-76083000I0J-250000D01*
G01*
X169114500Y-77333000D01*
G75*
G02*
X168864500Y-77583000I-250000J0D01*
G01*
X167939500Y-77583000D01*
G75*
G02*
X167689500Y-77333000I0J250000D01*
G01*
G37*
G36*
G01*
X164714500Y-77333000D02*
X164714500Y-76083000D01*
G75*
G02*
X164964500Y-75833000I250000J0D01*
G01*
X165889500Y-75833000D01*
G75*
G02*
X166139500Y-76083000I0J-250000D01*
G01*
X166139500Y-77333000D01*
G75*
G02*
X165889500Y-77583000I-250000J0D01*
G01*
X164964500Y-77583000D01*
G75*
G02*
X164714500Y-77333000I0J250000D01*
G01*
G37*
%TD*%
%TO.C,C2*%
G36*
G01*
X175998500Y-73015000D02*
X175998500Y-71765000D01*
G75*
G02*
X176248500Y-71515000I250000J0D01*
G01*
X177173500Y-71515000D01*
G75*
G02*
X177423500Y-71765000I0J-250000D01*
G01*
X177423500Y-73015000D01*
G75*
G02*
X177173500Y-73265000I-250000J0D01*
G01*
X176248500Y-73265000D01*
G75*
G02*
X175998500Y-73015000I0J250000D01*
G01*
G37*
G36*
G01*
X173023500Y-73015000D02*
X173023500Y-71765000D01*
G75*
G02*
X173273500Y-71515000I250000J0D01*
G01*
X174198500Y-71515000D01*
G75*
G02*
X174448500Y-71765000I0J-250000D01*
G01*
X174448500Y-73015000D01*
G75*
G02*
X174198500Y-73265000I-250000J0D01*
G01*
X173273500Y-73265000D01*
G75*
G02*
X173023500Y-73015000I0J250000D01*
G01*
G37*
%TD*%
%TO.C,C1*%
G36*
G01*
X166393500Y-72019000D02*
X166393500Y-73269000D01*
G75*
G02*
X166143500Y-73519000I-250000J0D01*
G01*
X165218500Y-73519000D01*
G75*
G02*
X164968500Y-73269000I0J250000D01*
G01*
X164968500Y-72019000D01*
G75*
G02*
X165218500Y-71769000I250000J0D01*
G01*
X166143500Y-71769000D01*
G75*
G02*
X166393500Y-72019000I0J-250000D01*
G01*
G37*
G36*
G01*
X169368500Y-72019000D02*
X169368500Y-73269000D01*
G75*
G02*
X169118500Y-73519000I-250000J0D01*
G01*
X168193500Y-73519000D01*
G75*
G02*
X167943500Y-73269000I0J250000D01*
G01*
X167943500Y-72019000D01*
G75*
G02*
X168193500Y-71769000I250000J0D01*
G01*
X169118500Y-71769000D01*
G75*
G02*
X169368500Y-72019000I0J-250000D01*
G01*
G37*
%TD*%
M02*
