%TF.GenerationSoftware,KiCad,Pcbnew,(5.1.6)-1*%
%TF.CreationDate,2020-06-19T21:21:41-04:00*%
%TF.ProjectId,TrialBBConversion,54726961-6c42-4424-936f-6e7665727369,rev?*%
%TF.SameCoordinates,Original*%
%TF.FileFunction,Legend,Top*%
%TF.FilePolarity,Positive*%
%FSLAX46Y46*%
G04 Gerber Fmt 4.6, Leading zero omitted, Abs format (unit mm)*
G04 Created by KiCad (PCBNEW (5.1.6)-1) date 2020-06-19 21:21:41*
%MOMM*%
%LPD*%
G01*
G04 APERTURE LIST*
%ADD10C,0.300000*%
%ADD11C,0.200000*%
%ADD12C,0.120000*%
%ADD13C,0.150000*%
%ADD14C,0.160000*%
G04 APERTURE END LIST*
D10*
X123499714Y-102913571D02*
X123499714Y-101413571D01*
X123999714Y-102485000D01*
X124499714Y-101413571D01*
X124499714Y-102913571D01*
X125928285Y-101413571D02*
X125214000Y-101413571D01*
X125142571Y-102127857D01*
X125214000Y-102056428D01*
X125356857Y-101985000D01*
X125714000Y-101985000D01*
X125856857Y-102056428D01*
X125928285Y-102127857D01*
X125999714Y-102270714D01*
X125999714Y-102627857D01*
X125928285Y-102770714D01*
X125856857Y-102842142D01*
X125714000Y-102913571D01*
X125356857Y-102913571D01*
X125214000Y-102842142D01*
X125142571Y-102770714D01*
X185475714Y-131488571D02*
X185475714Y-129988571D01*
X185975714Y-131060000D01*
X186475714Y-129988571D01*
X186475714Y-131488571D01*
X187904285Y-129988571D02*
X187190000Y-129988571D01*
X187118571Y-130702857D01*
X187190000Y-130631428D01*
X187332857Y-130560000D01*
X187690000Y-130560000D01*
X187832857Y-130631428D01*
X187904285Y-130702857D01*
X187975714Y-130845714D01*
X187975714Y-131202857D01*
X187904285Y-131345714D01*
X187832857Y-131417142D01*
X187690000Y-131488571D01*
X187332857Y-131488571D01*
X187190000Y-131417142D01*
X187118571Y-131345714D01*
X183824714Y-144696571D02*
X183824714Y-143196571D01*
X184324714Y-144268000D01*
X184824714Y-143196571D01*
X184824714Y-144696571D01*
X185753285Y-143839428D02*
X185610428Y-143768000D01*
X185539000Y-143696571D01*
X185467571Y-143553714D01*
X185467571Y-143482285D01*
X185539000Y-143339428D01*
X185610428Y-143268000D01*
X185753285Y-143196571D01*
X186039000Y-143196571D01*
X186181857Y-143268000D01*
X186253285Y-143339428D01*
X186324714Y-143482285D01*
X186324714Y-143553714D01*
X186253285Y-143696571D01*
X186181857Y-143768000D01*
X186039000Y-143839428D01*
X185753285Y-143839428D01*
X185610428Y-143910857D01*
X185539000Y-143982285D01*
X185467571Y-144125142D01*
X185467571Y-144410857D01*
X185539000Y-144553714D01*
X185610428Y-144625142D01*
X185753285Y-144696571D01*
X186039000Y-144696571D01*
X186181857Y-144625142D01*
X186253285Y-144553714D01*
X186324714Y-144410857D01*
X186324714Y-144125142D01*
X186253285Y-143982285D01*
X186181857Y-143910857D01*
X186039000Y-143839428D01*
X167534571Y-146244571D02*
X167891714Y-147744571D01*
X168177428Y-146673142D01*
X168463142Y-147744571D01*
X168820285Y-146244571D01*
X169606000Y-147744571D02*
X169463142Y-147673142D01*
X169391714Y-147601714D01*
X169320285Y-147458857D01*
X169320285Y-147030285D01*
X169391714Y-146887428D01*
X169463142Y-146816000D01*
X169606000Y-146744571D01*
X169820285Y-146744571D01*
X169963142Y-146816000D01*
X170034571Y-146887428D01*
X170106000Y-147030285D01*
X170106000Y-147458857D01*
X170034571Y-147601714D01*
X169963142Y-147673142D01*
X169820285Y-147744571D01*
X169606000Y-147744571D01*
X170606000Y-146244571D02*
X170963142Y-147744571D01*
X171248857Y-146673142D01*
X171534571Y-147744571D01*
X171891714Y-146244571D01*
X174463142Y-147744571D02*
X173963142Y-147030285D01*
X173606000Y-147744571D02*
X173606000Y-146244571D01*
X174177428Y-146244571D01*
X174320285Y-146316000D01*
X174391714Y-146387428D01*
X174463142Y-146530285D01*
X174463142Y-146744571D01*
X174391714Y-146887428D01*
X174320285Y-146958857D01*
X174177428Y-147030285D01*
X173606000Y-147030285D01*
X175748857Y-146744571D02*
X175748857Y-147744571D01*
X175106000Y-146744571D02*
X175106000Y-147530285D01*
X175177428Y-147673142D01*
X175320285Y-147744571D01*
X175534571Y-147744571D01*
X175677428Y-147673142D01*
X175748857Y-147601714D01*
X176463142Y-147744571D02*
X176463142Y-146744571D01*
X176463142Y-146887428D02*
X176534571Y-146816000D01*
X176677428Y-146744571D01*
X176891714Y-146744571D01*
X177034571Y-146816000D01*
X177106000Y-146958857D01*
X177106000Y-147744571D01*
X177106000Y-146958857D02*
X177177428Y-146816000D01*
X177320285Y-146744571D01*
X177534571Y-146744571D01*
X177677428Y-146816000D01*
X177748857Y-146958857D01*
X177748857Y-147744571D01*
X178463142Y-147744571D02*
X178463142Y-146244571D01*
X178463142Y-146816000D02*
X178606000Y-146744571D01*
X178891714Y-146744571D01*
X179034571Y-146816000D01*
X179106000Y-146887428D01*
X179177428Y-147030285D01*
X179177428Y-147458857D01*
X179106000Y-147601714D01*
X179034571Y-147673142D01*
X178891714Y-147744571D01*
X178606000Y-147744571D01*
X178463142Y-147673142D01*
X180034571Y-147744571D02*
X179891714Y-147673142D01*
X179820285Y-147530285D01*
X179820285Y-146244571D01*
X181177428Y-147673142D02*
X181034571Y-147744571D01*
X180748857Y-147744571D01*
X180606000Y-147673142D01*
X180534571Y-147530285D01*
X180534571Y-146958857D01*
X180606000Y-146816000D01*
X180748857Y-146744571D01*
X181034571Y-146744571D01*
X181177428Y-146816000D01*
X181248857Y-146958857D01*
X181248857Y-147101714D01*
X180534571Y-147244571D01*
X183034571Y-147744571D02*
X183034571Y-146244571D01*
X183606000Y-146244571D01*
X183748857Y-146316000D01*
X183820285Y-146387428D01*
X183891714Y-146530285D01*
X183891714Y-146744571D01*
X183820285Y-146887428D01*
X183748857Y-146958857D01*
X183606000Y-147030285D01*
X183034571Y-147030285D01*
X184534571Y-147744571D02*
X184534571Y-146744571D01*
X184534571Y-146244571D02*
X184463142Y-146316000D01*
X184534571Y-146387428D01*
X184606000Y-146316000D01*
X184534571Y-146244571D01*
X184534571Y-146387428D01*
X185034571Y-146744571D02*
X185605999Y-146744571D01*
X185248857Y-146244571D02*
X185248857Y-147530285D01*
X185320285Y-147673142D01*
X185463142Y-147744571D01*
X185605999Y-147744571D01*
X187034571Y-146744571D02*
X187605999Y-146744571D01*
X187248857Y-147744571D02*
X187248857Y-146458857D01*
X187320285Y-146316000D01*
X187463142Y-146244571D01*
X187605999Y-146244571D01*
X188320285Y-147744571D02*
X188177428Y-147673142D01*
X188106000Y-147601714D01*
X188034571Y-147458857D01*
X188034571Y-147030285D01*
X188106000Y-146887428D01*
X188177428Y-146816000D01*
X188320285Y-146744571D01*
X188534571Y-146744571D01*
X188677428Y-146816000D01*
X188748857Y-146887428D01*
X188820285Y-147030285D01*
X188820285Y-147458857D01*
X188748857Y-147601714D01*
X188677428Y-147673142D01*
X188534571Y-147744571D01*
X188320285Y-147744571D01*
X189463142Y-147744571D02*
X189463142Y-146744571D01*
X189463142Y-147030285D02*
X189534571Y-146887428D01*
X189606000Y-146816000D01*
X189748857Y-146744571D01*
X189891714Y-146744571D01*
X192391714Y-147744571D02*
X191891714Y-147030285D01*
X191534571Y-147744571D02*
X191534571Y-146244571D01*
X192106000Y-146244571D01*
X192248857Y-146316000D01*
X192320285Y-146387428D01*
X192391714Y-146530285D01*
X192391714Y-146744571D01*
X192320285Y-146887428D01*
X192248857Y-146958857D01*
X192106000Y-147030285D01*
X191534571Y-147030285D01*
X193677428Y-147744571D02*
X193677428Y-146958857D01*
X193606000Y-146816000D01*
X193463142Y-146744571D01*
X193177428Y-146744571D01*
X193034571Y-146816000D01*
X193677428Y-147673142D02*
X193534571Y-147744571D01*
X193177428Y-147744571D01*
X193034571Y-147673142D01*
X192963142Y-147530285D01*
X192963142Y-147387428D01*
X193034571Y-147244571D01*
X193177428Y-147173142D01*
X193534571Y-147173142D01*
X193677428Y-147101714D01*
X195034571Y-146744571D02*
X195034571Y-147958857D01*
X194963142Y-148101714D01*
X194891714Y-148173142D01*
X194748857Y-148244571D01*
X194534571Y-148244571D01*
X194391714Y-148173142D01*
X195034571Y-147673142D02*
X194891714Y-147744571D01*
X194606000Y-147744571D01*
X194463142Y-147673142D01*
X194391714Y-147601714D01*
X194320285Y-147458857D01*
X194320285Y-147030285D01*
X194391714Y-146887428D01*
X194463142Y-146816000D01*
X194606000Y-146744571D01*
X194891714Y-146744571D01*
X195034571Y-146816000D01*
X125274000Y-91610571D02*
X124774000Y-90896285D01*
X124416857Y-91610571D02*
X124416857Y-90110571D01*
X124988285Y-90110571D01*
X125131142Y-90182000D01*
X125202571Y-90253428D01*
X125274000Y-90396285D01*
X125274000Y-90610571D01*
X125202571Y-90753428D01*
X125131142Y-90824857D01*
X124988285Y-90896285D01*
X124416857Y-90896285D01*
X126488285Y-91539142D02*
X126345428Y-91610571D01*
X126059714Y-91610571D01*
X125916857Y-91539142D01*
X125845428Y-91396285D01*
X125845428Y-90824857D01*
X125916857Y-90682000D01*
X126059714Y-90610571D01*
X126345428Y-90610571D01*
X126488285Y-90682000D01*
X126559714Y-90824857D01*
X126559714Y-90967714D01*
X125845428Y-91110571D01*
X127845428Y-91610571D02*
X127845428Y-90110571D01*
X127845428Y-91539142D02*
X127702571Y-91610571D01*
X127416857Y-91610571D01*
X127274000Y-91539142D01*
X127202571Y-91467714D01*
X127131142Y-91324857D01*
X127131142Y-90896285D01*
X127202571Y-90753428D01*
X127274000Y-90682000D01*
X127416857Y-90610571D01*
X127702571Y-90610571D01*
X127845428Y-90682000D01*
X130559714Y-91467714D02*
X130488285Y-91539142D01*
X130274000Y-91610571D01*
X130131142Y-91610571D01*
X129916857Y-91539142D01*
X129774000Y-91396285D01*
X129702571Y-91253428D01*
X129631142Y-90967714D01*
X129631142Y-90753428D01*
X129702571Y-90467714D01*
X129774000Y-90324857D01*
X129916857Y-90182000D01*
X130131142Y-90110571D01*
X130274000Y-90110571D01*
X130488285Y-90182000D01*
X130559714Y-90253428D01*
X131845428Y-91610571D02*
X131845428Y-90824857D01*
X131774000Y-90682000D01*
X131631142Y-90610571D01*
X131345428Y-90610571D01*
X131202571Y-90682000D01*
X131845428Y-91539142D02*
X131702571Y-91610571D01*
X131345428Y-91610571D01*
X131202571Y-91539142D01*
X131131142Y-91396285D01*
X131131142Y-91253428D01*
X131202571Y-91110571D01*
X131345428Y-91039142D01*
X131702571Y-91039142D01*
X131845428Y-90967714D01*
X132774000Y-91610571D02*
X132631142Y-91539142D01*
X132559714Y-91396285D01*
X132559714Y-90110571D01*
X125238285Y-80664857D02*
X125452571Y-80736285D01*
X125524000Y-80807714D01*
X125595428Y-80950571D01*
X125595428Y-81164857D01*
X125524000Y-81307714D01*
X125452571Y-81379142D01*
X125309714Y-81450571D01*
X124738285Y-81450571D01*
X124738285Y-79950571D01*
X125238285Y-79950571D01*
X125381142Y-80022000D01*
X125452571Y-80093428D01*
X125524000Y-80236285D01*
X125524000Y-80379142D01*
X125452571Y-80522000D01*
X125381142Y-80593428D01*
X125238285Y-80664857D01*
X124738285Y-80664857D01*
X126452571Y-81450571D02*
X126309714Y-81379142D01*
X126238285Y-81236285D01*
X126238285Y-79950571D01*
X127024000Y-81450571D02*
X127024000Y-79950571D01*
X127166857Y-80879142D02*
X127595428Y-81450571D01*
X127595428Y-80450571D02*
X127024000Y-81022000D01*
X130238285Y-81307714D02*
X130166857Y-81379142D01*
X129952571Y-81450571D01*
X129809714Y-81450571D01*
X129595428Y-81379142D01*
X129452571Y-81236285D01*
X129381142Y-81093428D01*
X129309714Y-80807714D01*
X129309714Y-80593428D01*
X129381142Y-80307714D01*
X129452571Y-80164857D01*
X129595428Y-80022000D01*
X129809714Y-79950571D01*
X129952571Y-79950571D01*
X130166857Y-80022000D01*
X130238285Y-80093428D01*
X131524000Y-81450571D02*
X131524000Y-80664857D01*
X131452571Y-80522000D01*
X131309714Y-80450571D01*
X131024000Y-80450571D01*
X130881142Y-80522000D01*
X131524000Y-81379142D02*
X131381142Y-81450571D01*
X131024000Y-81450571D01*
X130881142Y-81379142D01*
X130809714Y-81236285D01*
X130809714Y-81093428D01*
X130881142Y-80950571D01*
X131024000Y-80879142D01*
X131381142Y-80879142D01*
X131524000Y-80807714D01*
X132452571Y-81450571D02*
X132309714Y-81379142D01*
X132238285Y-81236285D01*
X132238285Y-79950571D01*
X121332857Y-118246666D02*
X120475714Y-118246666D01*
X120904285Y-118246666D02*
X120904285Y-116496666D01*
X120761428Y-116746666D01*
X120618571Y-116913333D01*
X120475714Y-116996666D01*
X122261428Y-116496666D02*
X122404285Y-116496666D01*
X122547142Y-116580000D01*
X122618571Y-116663333D01*
X122690000Y-116830000D01*
X122761428Y-117163333D01*
X122761428Y-117580000D01*
X122690000Y-117913333D01*
X122618571Y-118080000D01*
X122547142Y-118163333D01*
X122404285Y-118246666D01*
X122261428Y-118246666D01*
X122118571Y-118163333D01*
X122047142Y-118080000D01*
X121975714Y-117913333D01*
X121904285Y-117580000D01*
X121904285Y-117163333D01*
X121975714Y-116830000D01*
X122047142Y-116663333D01*
X122118571Y-116580000D01*
X122261428Y-116496666D01*
X123690000Y-116496666D02*
X123832857Y-116496666D01*
X123975714Y-116580000D01*
X124047142Y-116663333D01*
X124118571Y-116830000D01*
X124190000Y-117163333D01*
X124190000Y-117580000D01*
X124118571Y-117913333D01*
X124047142Y-118080000D01*
X123975714Y-118163333D01*
X123832857Y-118246666D01*
X123690000Y-118246666D01*
X123547142Y-118163333D01*
X123475714Y-118080000D01*
X123404285Y-117913333D01*
X123332857Y-117580000D01*
X123332857Y-117163333D01*
X123404285Y-116830000D01*
X123475714Y-116663333D01*
X123547142Y-116580000D01*
X123690000Y-116496666D01*
X124761428Y-118246666D02*
X125904285Y-116496666D01*
X124975714Y-116496666D02*
X125118571Y-116580000D01*
X125190000Y-116746666D01*
X125118571Y-116913333D01*
X124975714Y-116996666D01*
X124832857Y-116913333D01*
X124761428Y-116746666D01*
X124832857Y-116580000D01*
X124975714Y-116496666D01*
X125832857Y-118163333D02*
X125904285Y-117996666D01*
X125832857Y-117830000D01*
X125690000Y-117746666D01*
X125547142Y-117830000D01*
X125475714Y-117996666D01*
X125547142Y-118163333D01*
X125690000Y-118246666D01*
X125832857Y-118163333D01*
X121475714Y-123096666D02*
X121332857Y-123013333D01*
X121261428Y-122930000D01*
X121190000Y-122763333D01*
X121190000Y-122680000D01*
X121261428Y-122513333D01*
X121332857Y-122430000D01*
X121475714Y-122346666D01*
X121761428Y-122346666D01*
X121904285Y-122430000D01*
X121975714Y-122513333D01*
X122047142Y-122680000D01*
X122047142Y-122763333D01*
X121975714Y-122930000D01*
X121904285Y-123013333D01*
X121761428Y-123096666D01*
X121475714Y-123096666D01*
X121332857Y-123180000D01*
X121261428Y-123263333D01*
X121190000Y-123430000D01*
X121190000Y-123763333D01*
X121261428Y-123930000D01*
X121332857Y-124013333D01*
X121475714Y-124096666D01*
X121761428Y-124096666D01*
X121904285Y-124013333D01*
X121975714Y-123930000D01*
X122047142Y-123763333D01*
X122047142Y-123430000D01*
X121975714Y-123263333D01*
X121904285Y-123180000D01*
X121761428Y-123096666D01*
X122975714Y-122346666D02*
X123118571Y-122346666D01*
X123261428Y-122430000D01*
X123332857Y-122513333D01*
X123404285Y-122680000D01*
X123475714Y-123013333D01*
X123475714Y-123430000D01*
X123404285Y-123763333D01*
X123332857Y-123930000D01*
X123261428Y-124013333D01*
X123118571Y-124096666D01*
X122975714Y-124096666D01*
X122832857Y-124013333D01*
X122761428Y-123930000D01*
X122690000Y-123763333D01*
X122618571Y-123430000D01*
X122618571Y-123013333D01*
X122690000Y-122680000D01*
X122761428Y-122513333D01*
X122832857Y-122430000D01*
X122975714Y-122346666D01*
X124047142Y-124096666D02*
X125190000Y-122346666D01*
X124261428Y-122346666D02*
X124404285Y-122430000D01*
X124475714Y-122596666D01*
X124404285Y-122763333D01*
X124261428Y-122846666D01*
X124118571Y-122763333D01*
X124047142Y-122596666D01*
X124118571Y-122430000D01*
X124261428Y-122346666D01*
X125118571Y-124013333D02*
X125190000Y-123846666D01*
X125118571Y-123680000D01*
X124975714Y-123596666D01*
X124832857Y-123680000D01*
X124761428Y-123846666D01*
X124832857Y-124013333D01*
X124975714Y-124096666D01*
X125118571Y-124013333D01*
X121904285Y-128196666D02*
X121618571Y-128196666D01*
X121475714Y-128280000D01*
X121404285Y-128363333D01*
X121261428Y-128613333D01*
X121190000Y-128946666D01*
X121190000Y-129613333D01*
X121261428Y-129780000D01*
X121332857Y-129863333D01*
X121475714Y-129946666D01*
X121761428Y-129946666D01*
X121904285Y-129863333D01*
X121975714Y-129780000D01*
X122047142Y-129613333D01*
X122047142Y-129196666D01*
X121975714Y-129030000D01*
X121904285Y-128946666D01*
X121761428Y-128863333D01*
X121475714Y-128863333D01*
X121332857Y-128946666D01*
X121261428Y-129030000D01*
X121190000Y-129196666D01*
X122975714Y-128196666D02*
X123118571Y-128196666D01*
X123261428Y-128280000D01*
X123332857Y-128363333D01*
X123404285Y-128530000D01*
X123475714Y-128863333D01*
X123475714Y-129280000D01*
X123404285Y-129613333D01*
X123332857Y-129780000D01*
X123261428Y-129863333D01*
X123118571Y-129946666D01*
X122975714Y-129946666D01*
X122832857Y-129863333D01*
X122761428Y-129780000D01*
X122690000Y-129613333D01*
X122618571Y-129280000D01*
X122618571Y-128863333D01*
X122690000Y-128530000D01*
X122761428Y-128363333D01*
X122832857Y-128280000D01*
X122975714Y-128196666D01*
X124047142Y-129946666D02*
X125190000Y-128196666D01*
X124261428Y-128196666D02*
X124404285Y-128280000D01*
X124475714Y-128446666D01*
X124404285Y-128613333D01*
X124261428Y-128696666D01*
X124118571Y-128613333D01*
X124047142Y-128446666D01*
X124118571Y-128280000D01*
X124261428Y-128196666D01*
X125118571Y-129863333D02*
X125190000Y-129696666D01*
X125118571Y-129530000D01*
X124975714Y-129446666D01*
X124832857Y-129530000D01*
X124761428Y-129696666D01*
X124832857Y-129863333D01*
X124975714Y-129946666D01*
X125118571Y-129863333D01*
X121904285Y-134630000D02*
X121904285Y-135796666D01*
X121547142Y-133963333D02*
X121190000Y-135213333D01*
X122118571Y-135213333D01*
X122975714Y-134046666D02*
X123118571Y-134046666D01*
X123261428Y-134130000D01*
X123332857Y-134213333D01*
X123404285Y-134380000D01*
X123475714Y-134713333D01*
X123475714Y-135130000D01*
X123404285Y-135463333D01*
X123332857Y-135630000D01*
X123261428Y-135713333D01*
X123118571Y-135796666D01*
X122975714Y-135796666D01*
X122832857Y-135713333D01*
X122761428Y-135630000D01*
X122690000Y-135463333D01*
X122618571Y-135130000D01*
X122618571Y-134713333D01*
X122690000Y-134380000D01*
X122761428Y-134213333D01*
X122832857Y-134130000D01*
X122975714Y-134046666D01*
X124047142Y-135796666D02*
X125190000Y-134046666D01*
X124261428Y-134046666D02*
X124404285Y-134130000D01*
X124475714Y-134296666D01*
X124404285Y-134463333D01*
X124261428Y-134546666D01*
X124118571Y-134463333D01*
X124047142Y-134296666D01*
X124118571Y-134130000D01*
X124261428Y-134046666D01*
X125118571Y-135713333D02*
X125190000Y-135546666D01*
X125118571Y-135380000D01*
X124975714Y-135296666D01*
X124832857Y-135380000D01*
X124761428Y-135546666D01*
X124832857Y-135713333D01*
X124975714Y-135796666D01*
X125118571Y-135713333D01*
X121190000Y-140063333D02*
X121261428Y-139980000D01*
X121404285Y-139896666D01*
X121761428Y-139896666D01*
X121904285Y-139980000D01*
X121975714Y-140063333D01*
X122047142Y-140230000D01*
X122047142Y-140396666D01*
X121975714Y-140646666D01*
X121118571Y-141646666D01*
X122047142Y-141646666D01*
X122975714Y-139896666D02*
X123118571Y-139896666D01*
X123261428Y-139980000D01*
X123332857Y-140063333D01*
X123404285Y-140230000D01*
X123475714Y-140563333D01*
X123475714Y-140980000D01*
X123404285Y-141313333D01*
X123332857Y-141480000D01*
X123261428Y-141563333D01*
X123118571Y-141646666D01*
X122975714Y-141646666D01*
X122832857Y-141563333D01*
X122761428Y-141480000D01*
X122690000Y-141313333D01*
X122618571Y-140980000D01*
X122618571Y-140563333D01*
X122690000Y-140230000D01*
X122761428Y-140063333D01*
X122832857Y-139980000D01*
X122975714Y-139896666D01*
X124047142Y-141646666D02*
X125190000Y-139896666D01*
X124261428Y-139896666D02*
X124404285Y-139980000D01*
X124475714Y-140146666D01*
X124404285Y-140313333D01*
X124261428Y-140396666D01*
X124118571Y-140313333D01*
X124047142Y-140146666D01*
X124118571Y-139980000D01*
X124261428Y-139896666D01*
X125118571Y-141563333D02*
X125190000Y-141396666D01*
X125118571Y-141230000D01*
X124975714Y-141146666D01*
X124832857Y-141230000D01*
X124761428Y-141396666D01*
X124832857Y-141563333D01*
X124975714Y-141646666D01*
X125118571Y-141563333D01*
X122261428Y-145746666D02*
X122404285Y-145746666D01*
X122547142Y-145830000D01*
X122618571Y-145913333D01*
X122690000Y-146080000D01*
X122761428Y-146413333D01*
X122761428Y-146830000D01*
X122690000Y-147163333D01*
X122618571Y-147330000D01*
X122547142Y-147413333D01*
X122404285Y-147496666D01*
X122261428Y-147496666D01*
X122118571Y-147413333D01*
X122047142Y-147330000D01*
X121975714Y-147163333D01*
X121904285Y-146830000D01*
X121904285Y-146413333D01*
X121975714Y-146080000D01*
X122047142Y-145913333D01*
X122118571Y-145830000D01*
X122261428Y-145746666D01*
X123332857Y-147496666D02*
X124475714Y-145746666D01*
X123547142Y-145746666D02*
X123690000Y-145830000D01*
X123761428Y-145996666D01*
X123690000Y-146163333D01*
X123547142Y-146246666D01*
X123404285Y-146163333D01*
X123332857Y-145996666D01*
X123404285Y-145830000D01*
X123547142Y-145746666D01*
X124404285Y-147413333D02*
X124475714Y-147246666D01*
X124404285Y-147080000D01*
X124261428Y-146996666D01*
X124118571Y-147080000D01*
X124047142Y-147246666D01*
X124118571Y-147413333D01*
X124261428Y-147496666D01*
X124404285Y-147413333D01*
X151448857Y-105350571D02*
X152377428Y-105350571D01*
X151877428Y-105922000D01*
X152091714Y-105922000D01*
X152234571Y-105993428D01*
X152306000Y-106064857D01*
X152377428Y-106207714D01*
X152377428Y-106564857D01*
X152306000Y-106707714D01*
X152234571Y-106779142D01*
X152091714Y-106850571D01*
X151663142Y-106850571D01*
X151520285Y-106779142D01*
X151448857Y-106707714D01*
X153020285Y-106707714D02*
X153091714Y-106779142D01*
X153020285Y-106850571D01*
X152948857Y-106779142D01*
X153020285Y-106707714D01*
X153020285Y-106850571D01*
X153591714Y-105350571D02*
X154520285Y-105350571D01*
X154020285Y-105922000D01*
X154234571Y-105922000D01*
X154377428Y-105993428D01*
X154448857Y-106064857D01*
X154520285Y-106207714D01*
X154520285Y-106564857D01*
X154448857Y-106707714D01*
X154377428Y-106779142D01*
X154234571Y-106850571D01*
X153806000Y-106850571D01*
X153663142Y-106779142D01*
X153591714Y-106707714D01*
X155020285Y-105850571D02*
X155377428Y-106850571D01*
X155734571Y-105850571D01*
X157448857Y-106850571D02*
X157448857Y-105350571D01*
X158020285Y-105350571D01*
X158163142Y-105422000D01*
X158234571Y-105493428D01*
X158306000Y-105636285D01*
X158306000Y-105850571D01*
X158234571Y-105993428D01*
X158163142Y-106064857D01*
X158020285Y-106136285D01*
X157448857Y-106136285D01*
X158948857Y-106850571D02*
X158948857Y-105850571D01*
X158948857Y-106136285D02*
X159020285Y-105993428D01*
X159091714Y-105922000D01*
X159234571Y-105850571D01*
X159377428Y-105850571D01*
X160091714Y-106850571D02*
X159948857Y-106779142D01*
X159877428Y-106707714D01*
X159806000Y-106564857D01*
X159806000Y-106136285D01*
X159877428Y-105993428D01*
X159948857Y-105922000D01*
X160091714Y-105850571D01*
X160306000Y-105850571D01*
X160448857Y-105922000D01*
X160520285Y-105993428D01*
X160591714Y-106136285D01*
X160591714Y-106564857D01*
X160520285Y-106707714D01*
X160448857Y-106779142D01*
X160306000Y-106850571D01*
X160091714Y-106850571D01*
X162377428Y-106850571D02*
X162377428Y-105350571D01*
X162877428Y-106422000D01*
X163377428Y-105350571D01*
X163377428Y-106850571D01*
X164091714Y-106850571D02*
X164091714Y-105850571D01*
X164091714Y-105350571D02*
X164020285Y-105422000D01*
X164091714Y-105493428D01*
X164163142Y-105422000D01*
X164091714Y-105350571D01*
X164091714Y-105493428D01*
X164806000Y-105850571D02*
X164806000Y-106850571D01*
X164806000Y-105993428D02*
X164877428Y-105922000D01*
X165020285Y-105850571D01*
X165234571Y-105850571D01*
X165377428Y-105922000D01*
X165448857Y-106064857D01*
X165448857Y-106850571D01*
X166163142Y-106850571D02*
X166163142Y-105850571D01*
X166163142Y-105350571D02*
X166091714Y-105422000D01*
X166163142Y-105493428D01*
X166234571Y-105422000D01*
X166163142Y-105350571D01*
X166163142Y-105493428D01*
X168234571Y-105993428D02*
X168091714Y-105922000D01*
X168020285Y-105850571D01*
X167948857Y-105707714D01*
X167948857Y-105636285D01*
X168020285Y-105493428D01*
X168091714Y-105422000D01*
X168234571Y-105350571D01*
X168520285Y-105350571D01*
X168663142Y-105422000D01*
X168734571Y-105493428D01*
X168806000Y-105636285D01*
X168806000Y-105707714D01*
X168734571Y-105850571D01*
X168663142Y-105922000D01*
X168520285Y-105993428D01*
X168234571Y-105993428D01*
X168091714Y-106064857D01*
X168020285Y-106136285D01*
X167948857Y-106279142D01*
X167948857Y-106564857D01*
X168020285Y-106707714D01*
X168091714Y-106779142D01*
X168234571Y-106850571D01*
X168520285Y-106850571D01*
X168663142Y-106779142D01*
X168734571Y-106707714D01*
X168806000Y-106564857D01*
X168806000Y-106279142D01*
X168734571Y-106136285D01*
X168663142Y-106064857D01*
X168520285Y-105993428D01*
X169448857Y-106850571D02*
X169448857Y-105350571D01*
X169948857Y-106422000D01*
X170448857Y-105350571D01*
X170448857Y-106850571D01*
X171163142Y-106850571D02*
X171163142Y-105350571D01*
X171806000Y-106850571D02*
X171806000Y-106064857D01*
X171734571Y-105922000D01*
X171591714Y-105850571D01*
X171377428Y-105850571D01*
X171234571Y-105922000D01*
X171163142Y-105993428D01*
X172377428Y-105850571D02*
X173163142Y-105850571D01*
X172377428Y-106850571D01*
X173163142Y-106850571D01*
X154687142Y-89832571D02*
X154687142Y-88332571D01*
X155044285Y-88332571D01*
X155258571Y-88404000D01*
X155401428Y-88546857D01*
X155472857Y-88689714D01*
X155544285Y-88975428D01*
X155544285Y-89189714D01*
X155472857Y-89475428D01*
X155401428Y-89618285D01*
X155258571Y-89761142D01*
X155044285Y-89832571D01*
X154687142Y-89832571D01*
X157044285Y-89832571D02*
X156544285Y-89118285D01*
X156187142Y-89832571D02*
X156187142Y-88332571D01*
X156758571Y-88332571D01*
X156901428Y-88404000D01*
X156972857Y-88475428D01*
X157044285Y-88618285D01*
X157044285Y-88832571D01*
X156972857Y-88975428D01*
X156901428Y-89046857D01*
X156758571Y-89118285D01*
X156187142Y-89118285D01*
X157472857Y-88332571D02*
X157972857Y-89832571D01*
X158472857Y-88332571D01*
X159187142Y-88975428D02*
X159044285Y-88904000D01*
X158972857Y-88832571D01*
X158901428Y-88689714D01*
X158901428Y-88618285D01*
X158972857Y-88475428D01*
X159044285Y-88404000D01*
X159187142Y-88332571D01*
X159472857Y-88332571D01*
X159615714Y-88404000D01*
X159687142Y-88475428D01*
X159758571Y-88618285D01*
X159758571Y-88689714D01*
X159687142Y-88832571D01*
X159615714Y-88904000D01*
X159472857Y-88975428D01*
X159187142Y-88975428D01*
X159044285Y-89046857D01*
X158972857Y-89118285D01*
X158901428Y-89261142D01*
X158901428Y-89546857D01*
X158972857Y-89689714D01*
X159044285Y-89761142D01*
X159187142Y-89832571D01*
X159472857Y-89832571D01*
X159615714Y-89761142D01*
X159687142Y-89689714D01*
X159758571Y-89546857D01*
X159758571Y-89261142D01*
X159687142Y-89118285D01*
X159615714Y-89046857D01*
X159472857Y-88975428D01*
X160615714Y-88975428D02*
X160472857Y-88904000D01*
X160401428Y-88832571D01*
X160330000Y-88689714D01*
X160330000Y-88618285D01*
X160401428Y-88475428D01*
X160472857Y-88404000D01*
X160615714Y-88332571D01*
X160901428Y-88332571D01*
X161044285Y-88404000D01*
X161115714Y-88475428D01*
X161187142Y-88618285D01*
X161187142Y-88689714D01*
X161115714Y-88832571D01*
X161044285Y-88904000D01*
X160901428Y-88975428D01*
X160615714Y-88975428D01*
X160472857Y-89046857D01*
X160401428Y-89118285D01*
X160330000Y-89261142D01*
X160330000Y-89546857D01*
X160401428Y-89689714D01*
X160472857Y-89761142D01*
X160615714Y-89832571D01*
X160901428Y-89832571D01*
X161044285Y-89761142D01*
X161115714Y-89689714D01*
X161187142Y-89546857D01*
X161187142Y-89261142D01*
X161115714Y-89118285D01*
X161044285Y-89046857D01*
X160901428Y-88975428D01*
X161687142Y-88332571D02*
X162615714Y-88332571D01*
X162115714Y-88904000D01*
X162330000Y-88904000D01*
X162472857Y-88975428D01*
X162544285Y-89046857D01*
X162615714Y-89189714D01*
X162615714Y-89546857D01*
X162544285Y-89689714D01*
X162472857Y-89761142D01*
X162330000Y-89832571D01*
X161901428Y-89832571D01*
X161758571Y-89761142D01*
X161687142Y-89689714D01*
X163115714Y-88332571D02*
X164044285Y-88332571D01*
X163544285Y-88904000D01*
X163758571Y-88904000D01*
X163901428Y-88975428D01*
X163972857Y-89046857D01*
X164044285Y-89189714D01*
X164044285Y-89546857D01*
X163972857Y-89689714D01*
X163901428Y-89761142D01*
X163758571Y-89832571D01*
X163330000Y-89832571D01*
X163187142Y-89761142D01*
X163115714Y-89689714D01*
X165830000Y-89832571D02*
X165830000Y-88332571D01*
X166330000Y-89404000D01*
X166830000Y-88332571D01*
X166830000Y-89832571D01*
X167758571Y-89832571D02*
X167615714Y-89761142D01*
X167544285Y-89689714D01*
X167472857Y-89546857D01*
X167472857Y-89118285D01*
X167544285Y-88975428D01*
X167615714Y-88904000D01*
X167758571Y-88832571D01*
X167972857Y-88832571D01*
X168115714Y-88904000D01*
X168187142Y-88975428D01*
X168258571Y-89118285D01*
X168258571Y-89546857D01*
X168187142Y-89689714D01*
X168115714Y-89761142D01*
X167972857Y-89832571D01*
X167758571Y-89832571D01*
X169544285Y-89832571D02*
X169544285Y-88332571D01*
X169544285Y-89761142D02*
X169401428Y-89832571D01*
X169115714Y-89832571D01*
X168972857Y-89761142D01*
X168901428Y-89689714D01*
X168830000Y-89546857D01*
X168830000Y-89118285D01*
X168901428Y-88975428D01*
X168972857Y-88904000D01*
X169115714Y-88832571D01*
X169401428Y-88832571D01*
X169544285Y-88904000D01*
X170901428Y-88832571D02*
X170901428Y-89832571D01*
X170258571Y-88832571D02*
X170258571Y-89618285D01*
X170330000Y-89761142D01*
X170472857Y-89832571D01*
X170687142Y-89832571D01*
X170830000Y-89761142D01*
X170901428Y-89689714D01*
X171830000Y-89832571D02*
X171687142Y-89761142D01*
X171615714Y-89618285D01*
X171615714Y-88332571D01*
X172972857Y-89761142D02*
X172830000Y-89832571D01*
X172544285Y-89832571D01*
X172401428Y-89761142D01*
X172330000Y-89618285D01*
X172330000Y-89046857D01*
X172401428Y-88904000D01*
X172544285Y-88832571D01*
X172830000Y-88832571D01*
X172972857Y-88904000D01*
X173044285Y-89046857D01*
X173044285Y-89189714D01*
X172330000Y-89332571D01*
X186480000Y-97198571D02*
X186480000Y-95698571D01*
X186980000Y-96770000D01*
X187480000Y-95698571D01*
X187480000Y-97198571D01*
X188408571Y-97198571D02*
X188265714Y-97127142D01*
X188194285Y-97055714D01*
X188122857Y-96912857D01*
X188122857Y-96484285D01*
X188194285Y-96341428D01*
X188265714Y-96270000D01*
X188408571Y-96198571D01*
X188622857Y-96198571D01*
X188765714Y-96270000D01*
X188837142Y-96341428D01*
X188908571Y-96484285D01*
X188908571Y-96912857D01*
X188837142Y-97055714D01*
X188765714Y-97127142D01*
X188622857Y-97198571D01*
X188408571Y-97198571D01*
X189337142Y-96198571D02*
X189908571Y-96198571D01*
X189551428Y-95698571D02*
X189551428Y-96984285D01*
X189622857Y-97127142D01*
X189765714Y-97198571D01*
X189908571Y-97198571D01*
X190622857Y-97198571D02*
X190480000Y-97127142D01*
X190408571Y-97055714D01*
X190337142Y-96912857D01*
X190337142Y-96484285D01*
X190408571Y-96341428D01*
X190480000Y-96270000D01*
X190622857Y-96198571D01*
X190837142Y-96198571D01*
X190980000Y-96270000D01*
X191051428Y-96341428D01*
X191122857Y-96484285D01*
X191122857Y-96912857D01*
X191051428Y-97055714D01*
X190980000Y-97127142D01*
X190837142Y-97198571D01*
X190622857Y-97198571D01*
X191765714Y-97198571D02*
X191765714Y-96198571D01*
X191765714Y-96484285D02*
X191837142Y-96341428D01*
X191908571Y-96270000D01*
X192051428Y-96198571D01*
X192194285Y-96198571D01*
X186011714Y-78402571D02*
X186011714Y-76902571D01*
X186583142Y-76902571D01*
X186726000Y-76974000D01*
X186797428Y-77045428D01*
X186868857Y-77188285D01*
X186868857Y-77402571D01*
X186797428Y-77545428D01*
X186726000Y-77616857D01*
X186583142Y-77688285D01*
X186011714Y-77688285D01*
X187726000Y-78402571D02*
X187583142Y-78331142D01*
X187511714Y-78259714D01*
X187440285Y-78116857D01*
X187440285Y-77688285D01*
X187511714Y-77545428D01*
X187583142Y-77474000D01*
X187726000Y-77402571D01*
X187940285Y-77402571D01*
X188083142Y-77474000D01*
X188154571Y-77545428D01*
X188226000Y-77688285D01*
X188226000Y-78116857D01*
X188154571Y-78259714D01*
X188083142Y-78331142D01*
X187940285Y-78402571D01*
X187726000Y-78402571D01*
X188726000Y-77402571D02*
X189011714Y-78402571D01*
X189297428Y-77688285D01*
X189583142Y-78402571D01*
X189868857Y-77402571D01*
X191011714Y-78331142D02*
X190868857Y-78402571D01*
X190583142Y-78402571D01*
X190440285Y-78331142D01*
X190368857Y-78188285D01*
X190368857Y-77616857D01*
X190440285Y-77474000D01*
X190583142Y-77402571D01*
X190868857Y-77402571D01*
X191011714Y-77474000D01*
X191083142Y-77616857D01*
X191083142Y-77759714D01*
X190368857Y-77902571D01*
X191726000Y-78402571D02*
X191726000Y-77402571D01*
X191726000Y-77688285D02*
X191797428Y-77545428D01*
X191868857Y-77474000D01*
X192011714Y-77402571D01*
X192154571Y-77402571D01*
X150495142Y-132331000D02*
X150352285Y-132259571D01*
X150138000Y-132259571D01*
X149923714Y-132331000D01*
X149780857Y-132473857D01*
X149709428Y-132616714D01*
X149638000Y-132902428D01*
X149638000Y-133116714D01*
X149709428Y-133402428D01*
X149780857Y-133545285D01*
X149923714Y-133688142D01*
X150138000Y-133759571D01*
X150280857Y-133759571D01*
X150495142Y-133688142D01*
X150566571Y-133616714D01*
X150566571Y-133116714D01*
X150280857Y-133116714D01*
X151209428Y-133759571D02*
X151209428Y-132259571D01*
X152066571Y-133759571D01*
X152066571Y-132259571D01*
X152780857Y-133759571D02*
X152780857Y-132259571D01*
X153138000Y-132259571D01*
X153352285Y-132331000D01*
X153495142Y-132473857D01*
X153566571Y-132616714D01*
X153638000Y-132902428D01*
X153638000Y-133116714D01*
X153566571Y-133402428D01*
X153495142Y-133545285D01*
X153352285Y-133688142D01*
X153138000Y-133759571D01*
X152780857Y-133759571D01*
X150495142Y-134881000D02*
X150352285Y-134809571D01*
X150138000Y-134809571D01*
X149923714Y-134881000D01*
X149780857Y-135023857D01*
X149709428Y-135166714D01*
X149638000Y-135452428D01*
X149638000Y-135666714D01*
X149709428Y-135952428D01*
X149780857Y-136095285D01*
X149923714Y-136238142D01*
X150138000Y-136309571D01*
X150280857Y-136309571D01*
X150495142Y-136238142D01*
X150566571Y-136166714D01*
X150566571Y-135666714D01*
X150280857Y-135666714D01*
X151209428Y-136309571D02*
X151209428Y-134809571D01*
X152066571Y-136309571D01*
X152066571Y-134809571D01*
X152780857Y-136309571D02*
X152780857Y-134809571D01*
X153138000Y-134809571D01*
X153352285Y-134881000D01*
X153495142Y-135023857D01*
X153566571Y-135166714D01*
X153638000Y-135452428D01*
X153638000Y-135666714D01*
X153566571Y-135952428D01*
X153495142Y-136095285D01*
X153352285Y-136238142D01*
X153138000Y-136309571D01*
X152780857Y-136309571D01*
X149495142Y-137359571D02*
X150423714Y-137359571D01*
X149923714Y-137931000D01*
X150138000Y-137931000D01*
X150280857Y-138002428D01*
X150352285Y-138073857D01*
X150423714Y-138216714D01*
X150423714Y-138573857D01*
X150352285Y-138716714D01*
X150280857Y-138788142D01*
X150138000Y-138859571D01*
X149709428Y-138859571D01*
X149566571Y-138788142D01*
X149495142Y-138716714D01*
X151066571Y-138716714D02*
X151138000Y-138788142D01*
X151066571Y-138859571D01*
X150995142Y-138788142D01*
X151066571Y-138716714D01*
X151066571Y-138859571D01*
X151638000Y-137359571D02*
X152566571Y-137359571D01*
X152066571Y-137931000D01*
X152280857Y-137931000D01*
X152423714Y-138002428D01*
X152495142Y-138073857D01*
X152566571Y-138216714D01*
X152566571Y-138573857D01*
X152495142Y-138716714D01*
X152423714Y-138788142D01*
X152280857Y-138859571D01*
X151852285Y-138859571D01*
X151709428Y-138788142D01*
X151638000Y-138716714D01*
X153066571Y-137859571D02*
X153423714Y-138859571D01*
X153780857Y-137859571D01*
X150495142Y-139981000D02*
X150352285Y-139909571D01*
X150138000Y-139909571D01*
X149923714Y-139981000D01*
X149780857Y-140123857D01*
X149709428Y-140266714D01*
X149638000Y-140552428D01*
X149638000Y-140766714D01*
X149709428Y-141052428D01*
X149780857Y-141195285D01*
X149923714Y-141338142D01*
X150138000Y-141409571D01*
X150280857Y-141409571D01*
X150495142Y-141338142D01*
X150566571Y-141266714D01*
X150566571Y-140766714D01*
X150280857Y-140766714D01*
X151209428Y-141409571D02*
X151209428Y-139909571D01*
X152066571Y-141409571D01*
X152066571Y-139909571D01*
X152780857Y-141409571D02*
X152780857Y-139909571D01*
X153138000Y-139909571D01*
X153352285Y-139981000D01*
X153495142Y-140123857D01*
X153566571Y-140266714D01*
X153638000Y-140552428D01*
X153638000Y-140766714D01*
X153566571Y-141052428D01*
X153495142Y-141195285D01*
X153352285Y-141338142D01*
X153138000Y-141409571D01*
X152780857Y-141409571D01*
D11*
X178435142Y-133838142D02*
X178649428Y-133909571D01*
X179006571Y-133909571D01*
X179149428Y-133838142D01*
X179220857Y-133766714D01*
X179292285Y-133623857D01*
X179292285Y-133481000D01*
X179220857Y-133338142D01*
X179149428Y-133266714D01*
X179006571Y-133195285D01*
X178720857Y-133123857D01*
X178578000Y-133052428D01*
X178506571Y-132981000D01*
X178435142Y-132838142D01*
X178435142Y-132695285D01*
X178506571Y-132552428D01*
X178578000Y-132481000D01*
X178720857Y-132409571D01*
X179078000Y-132409571D01*
X179292285Y-132481000D01*
X179792285Y-132409571D02*
X180720857Y-132409571D01*
X180220857Y-132981000D01*
X180435142Y-132981000D01*
X180578000Y-133052428D01*
X180649428Y-133123857D01*
X180720857Y-133266714D01*
X180720857Y-133623857D01*
X180649428Y-133766714D01*
X180578000Y-133838142D01*
X180435142Y-133909571D01*
X180006571Y-133909571D01*
X179863714Y-133838142D01*
X179792285Y-133766714D01*
X178435142Y-136288142D02*
X178649428Y-136359571D01*
X179006571Y-136359571D01*
X179149428Y-136288142D01*
X179220857Y-136216714D01*
X179292285Y-136073857D01*
X179292285Y-135931000D01*
X179220857Y-135788142D01*
X179149428Y-135716714D01*
X179006571Y-135645285D01*
X178720857Y-135573857D01*
X178578000Y-135502428D01*
X178506571Y-135431000D01*
X178435142Y-135288142D01*
X178435142Y-135145285D01*
X178506571Y-135002428D01*
X178578000Y-134931000D01*
X178720857Y-134859571D01*
X179078000Y-134859571D01*
X179292285Y-134931000D01*
X179863714Y-135002428D02*
X179935142Y-134931000D01*
X180078000Y-134859571D01*
X180435142Y-134859571D01*
X180578000Y-134931000D01*
X180649428Y-135002428D01*
X180720857Y-135145285D01*
X180720857Y-135288142D01*
X180649428Y-135502428D01*
X179792285Y-136359571D01*
X180720857Y-136359571D01*
X178328000Y-137309571D02*
X178613714Y-137309571D01*
X178756571Y-137381000D01*
X178899428Y-137523857D01*
X178970857Y-137809571D01*
X178970857Y-138309571D01*
X178899428Y-138595285D01*
X178756571Y-138738142D01*
X178613714Y-138809571D01*
X178328000Y-138809571D01*
X178185142Y-138738142D01*
X178042285Y-138595285D01*
X177970857Y-138309571D01*
X177970857Y-137809571D01*
X178042285Y-137523857D01*
X178185142Y-137381000D01*
X178328000Y-137309571D01*
X180256571Y-137809571D02*
X180256571Y-138809571D01*
X179613714Y-137809571D02*
X179613714Y-138595285D01*
X179685142Y-138738142D01*
X179828000Y-138809571D01*
X180042285Y-138809571D01*
X180185142Y-138738142D01*
X180256571Y-138666714D01*
X180756571Y-137809571D02*
X181328000Y-137809571D01*
X180970857Y-137309571D02*
X180970857Y-138595285D01*
X181042285Y-138738142D01*
X181185142Y-138809571D01*
X181328000Y-138809571D01*
X178435142Y-139831000D02*
X178292285Y-139759571D01*
X178078000Y-139759571D01*
X177863714Y-139831000D01*
X177720857Y-139973857D01*
X177649428Y-140116714D01*
X177578000Y-140402428D01*
X177578000Y-140616714D01*
X177649428Y-140902428D01*
X177720857Y-141045285D01*
X177863714Y-141188142D01*
X178078000Y-141259571D01*
X178220857Y-141259571D01*
X178435142Y-141188142D01*
X178506571Y-141116714D01*
X178506571Y-140616714D01*
X178220857Y-140616714D01*
X179149428Y-141259571D02*
X179149428Y-139759571D01*
X180006571Y-141259571D01*
X180006571Y-139759571D01*
X180720857Y-141259571D02*
X180720857Y-139759571D01*
X181078000Y-139759571D01*
X181292285Y-139831000D01*
X181435142Y-139973857D01*
X181506571Y-140116714D01*
X181578000Y-140402428D01*
X181578000Y-140616714D01*
X181506571Y-140902428D01*
X181435142Y-141045285D01*
X181292285Y-141188142D01*
X181078000Y-141259571D01*
X180720857Y-141259571D01*
D12*
%TO.C,SW2*%
X127113567Y-75762000D02*
G75*
G03*
X127113567Y-75762000I-1403567J0D01*
G01*
X128810000Y-72762000D02*
X122810000Y-72762000D01*
X128810000Y-78762000D02*
X128810000Y-72762000D01*
X122810000Y-78762000D02*
X128810000Y-78762000D01*
X122810000Y-72762000D02*
X122810000Y-78762000D01*
%TO.C,SW3*%
X127113567Y-85762000D02*
G75*
G03*
X127113567Y-85762000I-1403567J0D01*
G01*
X128810000Y-82762000D02*
X122810000Y-82762000D01*
X128810000Y-88762000D02*
X128810000Y-82762000D01*
X122810000Y-88762000D02*
X128810000Y-88762000D01*
X122810000Y-82762000D02*
X122810000Y-88762000D01*
%TO.C,R13*%
X143614564Y-101590000D02*
X142410436Y-101590000D01*
X143614564Y-103410000D02*
X142410436Y-103410000D01*
%TO.C,R12*%
X143114564Y-95090000D02*
X141910436Y-95090000D01*
X143114564Y-96910000D02*
X141910436Y-96910000D01*
%TO.C,R2*%
X144089564Y-84090000D02*
X142885436Y-84090000D01*
X144089564Y-85910000D02*
X142885436Y-85910000D01*
%TO.C,R1*%
X142617436Y-78380000D02*
X143821564Y-78380000D01*
X142617436Y-76560000D02*
X143821564Y-76560000D01*
%TO.C,D11*%
X135874000Y-103200000D02*
X135874000Y-101800000D01*
X133874000Y-103200000D02*
X135874000Y-103200000D01*
X133874000Y-101800000D02*
X133874000Y-103200000D01*
X135874000Y-101800000D02*
X133874000Y-101800000D01*
X132024000Y-101850000D02*
X131574000Y-101850000D01*
X132024000Y-103150000D02*
X131574000Y-103150000D01*
X137274000Y-103150000D02*
X136824000Y-103150000D01*
X137274000Y-101850000D02*
X136824000Y-101850000D01*
X132024000Y-101000000D02*
X132024000Y-104000000D01*
X136824000Y-101000000D02*
X136824000Y-104000000D01*
X136824000Y-101000000D02*
X132024000Y-101000000D01*
X137274000Y-103150000D02*
X137274000Y-101850000D01*
X132024000Y-104000000D02*
X136824000Y-104000000D01*
X131574000Y-101850000D02*
X131574000Y-103150000D01*
%TO.C,D10*%
X136000000Y-96700000D02*
X136000000Y-95300000D01*
X134000000Y-96700000D02*
X136000000Y-96700000D01*
X134000000Y-95300000D02*
X134000000Y-96700000D01*
X136000000Y-95300000D02*
X134000000Y-95300000D01*
X132150000Y-95350000D02*
X131700000Y-95350000D01*
X132150000Y-96650000D02*
X131700000Y-96650000D01*
X137400000Y-96650000D02*
X136950000Y-96650000D01*
X137400000Y-95350000D02*
X136950000Y-95350000D01*
X132150000Y-94500000D02*
X132150000Y-97500000D01*
X136950000Y-94500000D02*
X136950000Y-97500000D01*
X136950000Y-94500000D02*
X132150000Y-94500000D01*
X137400000Y-96650000D02*
X137400000Y-95350000D01*
X132150000Y-97500000D02*
X136950000Y-97500000D01*
X131700000Y-95350000D02*
X131700000Y-96650000D01*
%TO.C,D2*%
X136000000Y-86200000D02*
X136000000Y-84800000D01*
X134000000Y-86200000D02*
X136000000Y-86200000D01*
X134000000Y-84800000D02*
X134000000Y-86200000D01*
X136000000Y-84800000D02*
X134000000Y-84800000D01*
X132150000Y-84850000D02*
X131700000Y-84850000D01*
X132150000Y-86150000D02*
X131700000Y-86150000D01*
X137400000Y-86150000D02*
X136950000Y-86150000D01*
X137400000Y-84850000D02*
X136950000Y-84850000D01*
X132150000Y-84000000D02*
X132150000Y-87000000D01*
X136950000Y-84000000D02*
X136950000Y-87000000D01*
X136950000Y-84000000D02*
X132150000Y-84000000D01*
X137400000Y-86150000D02*
X137400000Y-84850000D01*
X132150000Y-87000000D02*
X136950000Y-87000000D01*
X131700000Y-84850000D02*
X131700000Y-86150000D01*
%TO.C,D1*%
X136128000Y-77916000D02*
X136128000Y-76516000D01*
X134128000Y-77916000D02*
X136128000Y-77916000D01*
X134128000Y-76516000D02*
X134128000Y-77916000D01*
X136128000Y-76516000D02*
X134128000Y-76516000D01*
X132278000Y-76566000D02*
X131828000Y-76566000D01*
X132278000Y-77866000D02*
X131828000Y-77866000D01*
X137528000Y-77866000D02*
X137078000Y-77866000D01*
X137528000Y-76566000D02*
X137078000Y-76566000D01*
X132278000Y-75716000D02*
X132278000Y-78716000D01*
X137078000Y-75716000D02*
X137078000Y-78716000D01*
X137078000Y-75716000D02*
X132278000Y-75716000D01*
X137528000Y-77866000D02*
X137528000Y-76566000D01*
X132278000Y-78716000D02*
X137078000Y-78716000D01*
X131828000Y-76566000D02*
X131828000Y-77866000D01*
%TO.C,SW1*%
X182960000Y-82320000D02*
X182960000Y-85320000D01*
X192960000Y-82320000D02*
X182960000Y-82320000D01*
X192960000Y-85320000D02*
X192960000Y-82320000D01*
X182960000Y-85320000D02*
X192960000Y-85320000D01*
X181460000Y-83820000D02*
X194460000Y-83820000D01*
X181460000Y-80320000D02*
X181460000Y-87320000D01*
X194460000Y-80320000D02*
X181460000Y-80320000D01*
X194460000Y-87320000D02*
X194460000Y-80320000D01*
X181460000Y-87320000D02*
X194460000Y-87320000D01*
%TO.C,R11*%
X182410436Y-76590000D02*
X183614564Y-76590000D01*
X182410436Y-78410000D02*
X183614564Y-78410000D01*
%TO.C,R10*%
X141589564Y-146910000D02*
X140385436Y-146910000D01*
X141589564Y-145090000D02*
X140385436Y-145090000D01*
%TO.C,R9*%
X141589564Y-140910000D02*
X140385436Y-140910000D01*
X141589564Y-139090000D02*
X140385436Y-139090000D01*
%TO.C,R6*%
X141589564Y-135410000D02*
X140385436Y-135410000D01*
X141589564Y-133590000D02*
X140385436Y-133590000D01*
%TO.C,R5*%
X141602064Y-130410000D02*
X140397936Y-130410000D01*
X141602064Y-128590000D02*
X140397936Y-128590000D01*
%TO.C,R4*%
X141535564Y-123846000D02*
X140331436Y-123846000D01*
X141535564Y-122026000D02*
X140331436Y-122026000D01*
%TO.C,R3*%
X141114564Y-117910000D02*
X139910436Y-117910000D01*
X141114564Y-116090000D02*
X139910436Y-116090000D01*
%TO.C,D9*%
X179580000Y-71994000D02*
X179580000Y-73294000D01*
X180030000Y-74144000D02*
X184830000Y-74144000D01*
X185280000Y-73294000D02*
X185280000Y-71994000D01*
X184830000Y-71144000D02*
X180030000Y-71144000D01*
X184830000Y-71144000D02*
X184830000Y-74144000D01*
X180030000Y-71144000D02*
X180030000Y-74144000D01*
X185280000Y-71994000D02*
X184830000Y-71994000D01*
X185280000Y-73294000D02*
X184830000Y-73294000D01*
X180030000Y-73294000D02*
X179580000Y-73294000D01*
X180030000Y-71994000D02*
X179580000Y-71994000D01*
X183880000Y-71944000D02*
X181880000Y-71944000D01*
X181880000Y-71944000D02*
X181880000Y-73344000D01*
X181880000Y-73344000D02*
X183880000Y-73344000D01*
X183880000Y-73344000D02*
X183880000Y-71944000D01*
%TO.C,D8*%
X128200000Y-145527000D02*
X128200000Y-146827000D01*
X128650000Y-147677000D02*
X133450000Y-147677000D01*
X133900000Y-146827000D02*
X133900000Y-145527000D01*
X133450000Y-144677000D02*
X128650000Y-144677000D01*
X133450000Y-144677000D02*
X133450000Y-147677000D01*
X128650000Y-144677000D02*
X128650000Y-147677000D01*
X133900000Y-145527000D02*
X133450000Y-145527000D01*
X133900000Y-146827000D02*
X133450000Y-146827000D01*
X128650000Y-146827000D02*
X128200000Y-146827000D01*
X128650000Y-145527000D02*
X128200000Y-145527000D01*
X132500000Y-145477000D02*
X130500000Y-145477000D01*
X130500000Y-145477000D02*
X130500000Y-146877000D01*
X130500000Y-146877000D02*
X132500000Y-146877000D01*
X132500000Y-146877000D02*
X132500000Y-145477000D01*
%TO.C,D7*%
X128200000Y-139685000D02*
X128200000Y-140985000D01*
X128650000Y-141835000D02*
X133450000Y-141835000D01*
X133900000Y-140985000D02*
X133900000Y-139685000D01*
X133450000Y-138835000D02*
X128650000Y-138835000D01*
X133450000Y-138835000D02*
X133450000Y-141835000D01*
X128650000Y-138835000D02*
X128650000Y-141835000D01*
X133900000Y-139685000D02*
X133450000Y-139685000D01*
X133900000Y-140985000D02*
X133450000Y-140985000D01*
X128650000Y-140985000D02*
X128200000Y-140985000D01*
X128650000Y-139685000D02*
X128200000Y-139685000D01*
X132500000Y-139635000D02*
X130500000Y-139635000D01*
X130500000Y-139635000D02*
X130500000Y-141035000D01*
X130500000Y-141035000D02*
X132500000Y-141035000D01*
X132500000Y-141035000D02*
X132500000Y-139635000D01*
%TO.C,D6*%
X128145000Y-134224000D02*
X128145000Y-135524000D01*
X128595000Y-136374000D02*
X133395000Y-136374000D01*
X133845000Y-135524000D02*
X133845000Y-134224000D01*
X133395000Y-133374000D02*
X128595000Y-133374000D01*
X133395000Y-133374000D02*
X133395000Y-136374000D01*
X128595000Y-133374000D02*
X128595000Y-136374000D01*
X133845000Y-134224000D02*
X133395000Y-134224000D01*
X133845000Y-135524000D02*
X133395000Y-135524000D01*
X128595000Y-135524000D02*
X128145000Y-135524000D01*
X128595000Y-134224000D02*
X128145000Y-134224000D01*
X132445000Y-134174000D02*
X130445000Y-134174000D01*
X130445000Y-134174000D02*
X130445000Y-135574000D01*
X130445000Y-135574000D02*
X132445000Y-135574000D01*
X132445000Y-135574000D02*
X132445000Y-134174000D01*
%TO.C,D5*%
X128300000Y-128850000D02*
X128300000Y-130150000D01*
X128750000Y-131000000D02*
X133550000Y-131000000D01*
X134000000Y-130150000D02*
X134000000Y-128850000D01*
X133550000Y-128000000D02*
X128750000Y-128000000D01*
X133550000Y-128000000D02*
X133550000Y-131000000D01*
X128750000Y-128000000D02*
X128750000Y-131000000D01*
X134000000Y-128850000D02*
X133550000Y-128850000D01*
X134000000Y-130150000D02*
X133550000Y-130150000D01*
X128750000Y-130150000D02*
X128300000Y-130150000D01*
X128750000Y-128850000D02*
X128300000Y-128850000D01*
X132600000Y-128800000D02*
X130600000Y-128800000D01*
X130600000Y-128800000D02*
X130600000Y-130200000D01*
X130600000Y-130200000D02*
X132600000Y-130200000D01*
X132600000Y-130200000D02*
X132600000Y-128800000D01*
%TO.C,D4*%
X128200000Y-122350000D02*
X128200000Y-123650000D01*
X128650000Y-124500000D02*
X133450000Y-124500000D01*
X133900000Y-123650000D02*
X133900000Y-122350000D01*
X133450000Y-121500000D02*
X128650000Y-121500000D01*
X133450000Y-121500000D02*
X133450000Y-124500000D01*
X128650000Y-121500000D02*
X128650000Y-124500000D01*
X133900000Y-122350000D02*
X133450000Y-122350000D01*
X133900000Y-123650000D02*
X133450000Y-123650000D01*
X128650000Y-123650000D02*
X128200000Y-123650000D01*
X128650000Y-122350000D02*
X128200000Y-122350000D01*
X132500000Y-122300000D02*
X130500000Y-122300000D01*
X130500000Y-122300000D02*
X130500000Y-123700000D01*
X130500000Y-123700000D02*
X132500000Y-123700000D01*
X132500000Y-123700000D02*
X132500000Y-122300000D01*
%TO.C,D3*%
X128200000Y-116350000D02*
X128200000Y-117650000D01*
X128650000Y-118500000D02*
X133450000Y-118500000D01*
X133900000Y-117650000D02*
X133900000Y-116350000D01*
X133450000Y-115500000D02*
X128650000Y-115500000D01*
X133450000Y-115500000D02*
X133450000Y-118500000D01*
X128650000Y-115500000D02*
X128650000Y-118500000D01*
X133900000Y-116350000D02*
X133450000Y-116350000D01*
X133900000Y-117650000D02*
X133450000Y-117650000D01*
X128650000Y-117650000D02*
X128200000Y-117650000D01*
X128650000Y-116350000D02*
X128200000Y-116350000D01*
X132500000Y-116300000D02*
X130500000Y-116300000D01*
X130500000Y-116300000D02*
X130500000Y-117700000D01*
X130500000Y-117700000D02*
X132500000Y-117700000D01*
X132500000Y-117700000D02*
X132500000Y-116300000D01*
D13*
%TO.C,X1*%
X180340000Y-117094000D02*
X180340000Y-99060000D01*
X147574000Y-99060000D02*
X147574000Y-117094000D01*
X180340000Y-117094000D02*
X147574000Y-117094000D01*
X147574000Y-99060000D02*
X180340000Y-99060000D01*
D12*
%TO.C,U4*%
X175900000Y-75390000D02*
X174100000Y-75390000D01*
X174100000Y-78610000D02*
X176550000Y-78610000D01*
%TO.C,R8*%
X158184436Y-72750000D02*
X159388564Y-72750000D01*
X158184436Y-74570000D02*
X159388564Y-74570000D01*
%TO.C,R7*%
X166312436Y-75798000D02*
X167516564Y-75798000D01*
X166312436Y-77618000D02*
X167516564Y-77618000D01*
%TO.C,C2*%
X174621436Y-71480000D02*
X175825564Y-71480000D01*
X174621436Y-73300000D02*
X175825564Y-73300000D01*
%TO.C,C1*%
X167770564Y-73554000D02*
X166566436Y-73554000D01*
X167770564Y-71734000D02*
X166566436Y-71734000D01*
%TO.C,U3*%
X182960000Y-88940000D02*
X182960000Y-92940000D01*
X187960000Y-88940000D02*
X187960000Y-92940000D01*
X192960000Y-88440000D02*
X192960000Y-93440000D01*
X194460000Y-91440000D02*
X179960000Y-91440000D01*
X198460000Y-93940000D02*
X194460000Y-93940000D01*
X198460000Y-88940000D02*
X198460000Y-93940000D01*
X194460000Y-88940000D02*
X198460000Y-88940000D01*
X194460000Y-87940000D02*
X194460000Y-94940000D01*
X181460000Y-87940000D02*
X194460000Y-87940000D01*
X181460000Y-94940000D02*
X181460000Y-87940000D01*
X194460000Y-94940000D02*
X181460000Y-94940000D01*
%TO.C,U1*%
X177292000Y-97790000D02*
X151892000Y-97790000D01*
X177292000Y-80010000D02*
X177292000Y-97790000D01*
X151892000Y-80010000D02*
X177292000Y-80010000D01*
X151892000Y-97790000D02*
X151892000Y-80010000D01*
X164592000Y-82550000D02*
X164592000Y-95250000D01*
X177292000Y-95250000D02*
X151892000Y-95250000D01*
X177292000Y-82550000D02*
X177292000Y-95250000D01*
X151892000Y-82550000D02*
X177292000Y-82550000D01*
X151892000Y-95250000D02*
X151892000Y-82550000D01*
%TO.C,H2*%
D13*
X190246095Y-132022380D02*
X190246095Y-131022380D01*
X190246095Y-131498571D02*
X190817523Y-131498571D01*
X190817523Y-132022380D02*
X190817523Y-131022380D01*
X191246095Y-131117619D02*
X191293714Y-131070000D01*
X191388952Y-131022380D01*
X191627047Y-131022380D01*
X191722285Y-131070000D01*
X191769904Y-131117619D01*
X191817523Y-131212857D01*
X191817523Y-131308095D01*
X191769904Y-131450952D01*
X191198476Y-132022380D01*
X191817523Y-132022380D01*
%TO.C,H3*%
X123952095Y-92196380D02*
X123952095Y-91196380D01*
X123952095Y-91672571D02*
X124523523Y-91672571D01*
X124523523Y-92196380D02*
X124523523Y-91196380D01*
X124904476Y-91196380D02*
X125523523Y-91196380D01*
X125190190Y-91577333D01*
X125333047Y-91577333D01*
X125428285Y-91624952D01*
X125475904Y-91672571D01*
X125523523Y-91767809D01*
X125523523Y-92005904D01*
X125475904Y-92101142D01*
X125428285Y-92148761D01*
X125333047Y-92196380D01*
X125047333Y-92196380D01*
X124952095Y-92148761D01*
X124904476Y-92101142D01*
%TO.C,H1*%
X190246095Y-123184380D02*
X190246095Y-122184380D01*
X190246095Y-122660571D02*
X190817523Y-122660571D01*
X190817523Y-123184380D02*
X190817523Y-122184380D01*
X191817523Y-123184380D02*
X191246095Y-123184380D01*
X191531809Y-123184380D02*
X191531809Y-122184380D01*
X191436571Y-122327238D01*
X191341333Y-122422476D01*
X191246095Y-122470095D01*
%TO.C,SW2*%
X122214761Y-77095333D02*
X122262380Y-76952476D01*
X122262380Y-76714380D01*
X122214761Y-76619142D01*
X122167142Y-76571523D01*
X122071904Y-76523904D01*
X121976666Y-76523904D01*
X121881428Y-76571523D01*
X121833809Y-76619142D01*
X121786190Y-76714380D01*
X121738571Y-76904857D01*
X121690952Y-77000095D01*
X121643333Y-77047714D01*
X121548095Y-77095333D01*
X121452857Y-77095333D01*
X121357619Y-77047714D01*
X121310000Y-77000095D01*
X121262380Y-76904857D01*
X121262380Y-76666761D01*
X121310000Y-76523904D01*
X121262380Y-76190571D02*
X122262380Y-75952476D01*
X121548095Y-75762000D01*
X122262380Y-75571523D01*
X121262380Y-75333428D01*
X121357619Y-75000095D02*
X121310000Y-74952476D01*
X121262380Y-74857238D01*
X121262380Y-74619142D01*
X121310000Y-74523904D01*
X121357619Y-74476285D01*
X121452857Y-74428666D01*
X121548095Y-74428666D01*
X121690952Y-74476285D01*
X122262380Y-75047714D01*
X122262380Y-74428666D01*
%TO.C,SW3*%
X122214761Y-86595333D02*
X122262380Y-86452476D01*
X122262380Y-86214380D01*
X122214761Y-86119142D01*
X122167142Y-86071523D01*
X122071904Y-86023904D01*
X121976666Y-86023904D01*
X121881428Y-86071523D01*
X121833809Y-86119142D01*
X121786190Y-86214380D01*
X121738571Y-86404857D01*
X121690952Y-86500095D01*
X121643333Y-86547714D01*
X121548095Y-86595333D01*
X121452857Y-86595333D01*
X121357619Y-86547714D01*
X121310000Y-86500095D01*
X121262380Y-86404857D01*
X121262380Y-86166761D01*
X121310000Y-86023904D01*
X121262380Y-85690571D02*
X122262380Y-85452476D01*
X121548095Y-85262000D01*
X122262380Y-85071523D01*
X121262380Y-84833428D01*
X121262380Y-84547714D02*
X121262380Y-83928666D01*
X121643333Y-84262000D01*
X121643333Y-84119142D01*
X121690952Y-84023904D01*
X121738571Y-83976285D01*
X121833809Y-83928666D01*
X122071904Y-83928666D01*
X122167142Y-83976285D01*
X122214761Y-84023904D01*
X122262380Y-84119142D01*
X122262380Y-84404857D01*
X122214761Y-84500095D01*
X122167142Y-84547714D01*
%TO.C,R13*%
X142369642Y-104772380D02*
X142036309Y-104296190D01*
X141798214Y-104772380D02*
X141798214Y-103772380D01*
X142179166Y-103772380D01*
X142274404Y-103820000D01*
X142322023Y-103867619D01*
X142369642Y-103962857D01*
X142369642Y-104105714D01*
X142322023Y-104200952D01*
X142274404Y-104248571D01*
X142179166Y-104296190D01*
X141798214Y-104296190D01*
X143322023Y-104772380D02*
X142750595Y-104772380D01*
X143036309Y-104772380D02*
X143036309Y-103772380D01*
X142941071Y-103915238D01*
X142845833Y-104010476D01*
X142750595Y-104058095D01*
X143655357Y-103772380D02*
X144274404Y-103772380D01*
X143941071Y-104153333D01*
X144083928Y-104153333D01*
X144179166Y-104200952D01*
X144226785Y-104248571D01*
X144274404Y-104343809D01*
X144274404Y-104581904D01*
X144226785Y-104677142D01*
X144179166Y-104724761D01*
X144083928Y-104772380D01*
X143798214Y-104772380D01*
X143702976Y-104724761D01*
X143655357Y-104677142D01*
X142893452Y-101132380D02*
X142322023Y-101132380D01*
X142607738Y-101132380D02*
X142607738Y-100132380D01*
X142512500Y-100275238D01*
X142417261Y-100370476D01*
X142322023Y-100418095D01*
X143322023Y-101132380D02*
X143322023Y-100132380D01*
X143417261Y-100751428D02*
X143702976Y-101132380D01*
X143702976Y-100465714D02*
X143322023Y-100846666D01*
%TO.C,R12*%
X141869642Y-98272380D02*
X141536309Y-97796190D01*
X141298214Y-98272380D02*
X141298214Y-97272380D01*
X141679166Y-97272380D01*
X141774404Y-97320000D01*
X141822023Y-97367619D01*
X141869642Y-97462857D01*
X141869642Y-97605714D01*
X141822023Y-97700952D01*
X141774404Y-97748571D01*
X141679166Y-97796190D01*
X141298214Y-97796190D01*
X142822023Y-98272380D02*
X142250595Y-98272380D01*
X142536309Y-98272380D02*
X142536309Y-97272380D01*
X142441071Y-97415238D01*
X142345833Y-97510476D01*
X142250595Y-97558095D01*
X143202976Y-97367619D02*
X143250595Y-97320000D01*
X143345833Y-97272380D01*
X143583928Y-97272380D01*
X143679166Y-97320000D01*
X143726785Y-97367619D01*
X143774404Y-97462857D01*
X143774404Y-97558095D01*
X143726785Y-97700952D01*
X143155357Y-98272380D01*
X143774404Y-98272380D01*
X142393452Y-94632380D02*
X141822023Y-94632380D01*
X142107738Y-94632380D02*
X142107738Y-93632380D01*
X142012500Y-93775238D01*
X141917261Y-93870476D01*
X141822023Y-93918095D01*
X142822023Y-94632380D02*
X142822023Y-93632380D01*
X142917261Y-94251428D02*
X143202976Y-94632380D01*
X143202976Y-93965714D02*
X142822023Y-94346666D01*
%TO.C,R2*%
X143320833Y-87272380D02*
X142987500Y-86796190D01*
X142749404Y-87272380D02*
X142749404Y-86272380D01*
X143130357Y-86272380D01*
X143225595Y-86320000D01*
X143273214Y-86367619D01*
X143320833Y-86462857D01*
X143320833Y-86605714D01*
X143273214Y-86700952D01*
X143225595Y-86748571D01*
X143130357Y-86796190D01*
X142749404Y-86796190D01*
X143701785Y-86367619D02*
X143749404Y-86320000D01*
X143844642Y-86272380D01*
X144082738Y-86272380D01*
X144177976Y-86320000D01*
X144225595Y-86367619D01*
X144273214Y-86462857D01*
X144273214Y-86558095D01*
X144225595Y-86700952D01*
X143654166Y-87272380D01*
X144273214Y-87272380D01*
X143368452Y-83632380D02*
X142797023Y-83632380D01*
X143082738Y-83632380D02*
X143082738Y-82632380D01*
X142987500Y-82775238D01*
X142892261Y-82870476D01*
X142797023Y-82918095D01*
X143797023Y-83632380D02*
X143797023Y-82632380D01*
X143892261Y-83251428D02*
X144177976Y-83632380D01*
X144177976Y-82965714D02*
X143797023Y-83346666D01*
%TO.C,R1*%
X143052833Y-76102380D02*
X142719500Y-75626190D01*
X142481404Y-76102380D02*
X142481404Y-75102380D01*
X142862357Y-75102380D01*
X142957595Y-75150000D01*
X143005214Y-75197619D01*
X143052833Y-75292857D01*
X143052833Y-75435714D01*
X143005214Y-75530952D01*
X142957595Y-75578571D01*
X142862357Y-75626190D01*
X142481404Y-75626190D01*
X144005214Y-76102380D02*
X143433785Y-76102380D01*
X143719500Y-76102380D02*
X143719500Y-75102380D01*
X143624261Y-75245238D01*
X143529023Y-75340476D01*
X143433785Y-75388095D01*
X143100452Y-79742380D02*
X142529023Y-79742380D01*
X142814738Y-79742380D02*
X142814738Y-78742380D01*
X142719500Y-78885238D01*
X142624261Y-78980476D01*
X142529023Y-79028095D01*
X143529023Y-79742380D02*
X143529023Y-78742380D01*
X143624261Y-79361428D02*
X143909976Y-79742380D01*
X143909976Y-79075714D02*
X143529023Y-79456666D01*
%TO.C,D11*%
X132809714Y-105252380D02*
X132809714Y-104252380D01*
X133047809Y-104252380D01*
X133190666Y-104300000D01*
X133285904Y-104395238D01*
X133333523Y-104490476D01*
X133381142Y-104680952D01*
X133381142Y-104823809D01*
X133333523Y-105014285D01*
X133285904Y-105109523D01*
X133190666Y-105204761D01*
X133047809Y-105252380D01*
X132809714Y-105252380D01*
X134333523Y-105252380D02*
X133762095Y-105252380D01*
X134047809Y-105252380D02*
X134047809Y-104252380D01*
X133952571Y-104395238D01*
X133857333Y-104490476D01*
X133762095Y-104538095D01*
X135285904Y-105252380D02*
X134714476Y-105252380D01*
X135000190Y-105252380D02*
X135000190Y-104252380D01*
X134904952Y-104395238D01*
X134809714Y-104490476D01*
X134714476Y-104538095D01*
X137790666Y-102621428D02*
X138552571Y-102621428D01*
X138171619Y-103002380D02*
X138171619Y-102240476D01*
X139457333Y-103002380D02*
X139457333Y-102478571D01*
X139409714Y-102383333D01*
X139314476Y-102335714D01*
X139124000Y-102335714D01*
X139028761Y-102383333D01*
X139457333Y-102954761D02*
X139362095Y-103002380D01*
X139124000Y-103002380D01*
X139028761Y-102954761D01*
X138981142Y-102859523D01*
X138981142Y-102764285D01*
X139028761Y-102669047D01*
X139124000Y-102621428D01*
X139362095Y-102621428D01*
X139457333Y-102573809D01*
X129764476Y-102571428D02*
X130526380Y-102571428D01*
X131431142Y-102904761D02*
X131335904Y-102952380D01*
X131145428Y-102952380D01*
X131050190Y-102904761D01*
X131002571Y-102857142D01*
X130954952Y-102761904D01*
X130954952Y-102476190D01*
X131002571Y-102380952D01*
X131050190Y-102333333D01*
X131145428Y-102285714D01*
X131335904Y-102285714D01*
X131431142Y-102333333D01*
%TO.C,D10*%
X132935714Y-98752380D02*
X132935714Y-97752380D01*
X133173809Y-97752380D01*
X133316666Y-97800000D01*
X133411904Y-97895238D01*
X133459523Y-97990476D01*
X133507142Y-98180952D01*
X133507142Y-98323809D01*
X133459523Y-98514285D01*
X133411904Y-98609523D01*
X133316666Y-98704761D01*
X133173809Y-98752380D01*
X132935714Y-98752380D01*
X134459523Y-98752380D02*
X133888095Y-98752380D01*
X134173809Y-98752380D02*
X134173809Y-97752380D01*
X134078571Y-97895238D01*
X133983333Y-97990476D01*
X133888095Y-98038095D01*
X135078571Y-97752380D02*
X135173809Y-97752380D01*
X135269047Y-97800000D01*
X135316666Y-97847619D01*
X135364285Y-97942857D01*
X135411904Y-98133333D01*
X135411904Y-98371428D01*
X135364285Y-98561904D01*
X135316666Y-98657142D01*
X135269047Y-98704761D01*
X135173809Y-98752380D01*
X135078571Y-98752380D01*
X134983333Y-98704761D01*
X134935714Y-98657142D01*
X134888095Y-98561904D01*
X134840476Y-98371428D01*
X134840476Y-98133333D01*
X134888095Y-97942857D01*
X134935714Y-97847619D01*
X134983333Y-97800000D01*
X135078571Y-97752380D01*
X137916666Y-96121428D02*
X138678571Y-96121428D01*
X138297619Y-96502380D02*
X138297619Y-95740476D01*
X139583333Y-96502380D02*
X139583333Y-95978571D01*
X139535714Y-95883333D01*
X139440476Y-95835714D01*
X139250000Y-95835714D01*
X139154761Y-95883333D01*
X139583333Y-96454761D02*
X139488095Y-96502380D01*
X139250000Y-96502380D01*
X139154761Y-96454761D01*
X139107142Y-96359523D01*
X139107142Y-96264285D01*
X139154761Y-96169047D01*
X139250000Y-96121428D01*
X139488095Y-96121428D01*
X139583333Y-96073809D01*
X129890476Y-96071428D02*
X130652380Y-96071428D01*
X131557142Y-96404761D02*
X131461904Y-96452380D01*
X131271428Y-96452380D01*
X131176190Y-96404761D01*
X131128571Y-96357142D01*
X131080952Y-96261904D01*
X131080952Y-95976190D01*
X131128571Y-95880952D01*
X131176190Y-95833333D01*
X131271428Y-95785714D01*
X131461904Y-95785714D01*
X131557142Y-95833333D01*
%TO.C,D2*%
X133411904Y-88252380D02*
X133411904Y-87252380D01*
X133650000Y-87252380D01*
X133792857Y-87300000D01*
X133888095Y-87395238D01*
X133935714Y-87490476D01*
X133983333Y-87680952D01*
X133983333Y-87823809D01*
X133935714Y-88014285D01*
X133888095Y-88109523D01*
X133792857Y-88204761D01*
X133650000Y-88252380D01*
X133411904Y-88252380D01*
X134364285Y-87347619D02*
X134411904Y-87300000D01*
X134507142Y-87252380D01*
X134745238Y-87252380D01*
X134840476Y-87300000D01*
X134888095Y-87347619D01*
X134935714Y-87442857D01*
X134935714Y-87538095D01*
X134888095Y-87680952D01*
X134316666Y-88252380D01*
X134935714Y-88252380D01*
X137916666Y-85621428D02*
X138678571Y-85621428D01*
X138297619Y-86002380D02*
X138297619Y-85240476D01*
X139583333Y-86002380D02*
X139583333Y-85478571D01*
X139535714Y-85383333D01*
X139440476Y-85335714D01*
X139250000Y-85335714D01*
X139154761Y-85383333D01*
X139583333Y-85954761D02*
X139488095Y-86002380D01*
X139250000Y-86002380D01*
X139154761Y-85954761D01*
X139107142Y-85859523D01*
X139107142Y-85764285D01*
X139154761Y-85669047D01*
X139250000Y-85621428D01*
X139488095Y-85621428D01*
X139583333Y-85573809D01*
X129890476Y-85571428D02*
X130652380Y-85571428D01*
X131557142Y-85904761D02*
X131461904Y-85952380D01*
X131271428Y-85952380D01*
X131176190Y-85904761D01*
X131128571Y-85857142D01*
X131080952Y-85761904D01*
X131080952Y-85476190D01*
X131128571Y-85380952D01*
X131176190Y-85333333D01*
X131271428Y-85285714D01*
X131461904Y-85285714D01*
X131557142Y-85333333D01*
%TO.C,D1*%
X133539904Y-79968380D02*
X133539904Y-78968380D01*
X133778000Y-78968380D01*
X133920857Y-79016000D01*
X134016095Y-79111238D01*
X134063714Y-79206476D01*
X134111333Y-79396952D01*
X134111333Y-79539809D01*
X134063714Y-79730285D01*
X134016095Y-79825523D01*
X133920857Y-79920761D01*
X133778000Y-79968380D01*
X133539904Y-79968380D01*
X135063714Y-79968380D02*
X134492285Y-79968380D01*
X134778000Y-79968380D02*
X134778000Y-78968380D01*
X134682761Y-79111238D01*
X134587523Y-79206476D01*
X134492285Y-79254095D01*
X138044666Y-77337428D02*
X138806571Y-77337428D01*
X138425619Y-77718380D02*
X138425619Y-76956476D01*
X139711333Y-77718380D02*
X139711333Y-77194571D01*
X139663714Y-77099333D01*
X139568476Y-77051714D01*
X139378000Y-77051714D01*
X139282761Y-77099333D01*
X139711333Y-77670761D02*
X139616095Y-77718380D01*
X139378000Y-77718380D01*
X139282761Y-77670761D01*
X139235142Y-77575523D01*
X139235142Y-77480285D01*
X139282761Y-77385047D01*
X139378000Y-77337428D01*
X139616095Y-77337428D01*
X139711333Y-77289809D01*
X130018476Y-77287428D02*
X130780380Y-77287428D01*
X131685142Y-77620761D02*
X131589904Y-77668380D01*
X131399428Y-77668380D01*
X131304190Y-77620761D01*
X131256571Y-77573142D01*
X131208952Y-77477904D01*
X131208952Y-77192190D01*
X131256571Y-77096952D01*
X131304190Y-77049333D01*
X131399428Y-77001714D01*
X131589904Y-77001714D01*
X131685142Y-77049333D01*
%TO.C,SW1*%
X186626666Y-81724761D02*
X186769523Y-81772380D01*
X187007619Y-81772380D01*
X187102857Y-81724761D01*
X187150476Y-81677142D01*
X187198095Y-81581904D01*
X187198095Y-81486666D01*
X187150476Y-81391428D01*
X187102857Y-81343809D01*
X187007619Y-81296190D01*
X186817142Y-81248571D01*
X186721904Y-81200952D01*
X186674285Y-81153333D01*
X186626666Y-81058095D01*
X186626666Y-80962857D01*
X186674285Y-80867619D01*
X186721904Y-80820000D01*
X186817142Y-80772380D01*
X187055238Y-80772380D01*
X187198095Y-80820000D01*
X187531428Y-80772380D02*
X187769523Y-81772380D01*
X187960000Y-81058095D01*
X188150476Y-81772380D01*
X188388571Y-80772380D01*
X189293333Y-81772380D02*
X188721904Y-81772380D01*
X189007619Y-81772380D02*
X189007619Y-80772380D01*
X188912380Y-80915238D01*
X188817142Y-81010476D01*
X188721904Y-81058095D01*
%TO.C,R11*%
X182369642Y-76132380D02*
X182036309Y-75656190D01*
X181798214Y-76132380D02*
X181798214Y-75132380D01*
X182179166Y-75132380D01*
X182274404Y-75180000D01*
X182322023Y-75227619D01*
X182369642Y-75322857D01*
X182369642Y-75465714D01*
X182322023Y-75560952D01*
X182274404Y-75608571D01*
X182179166Y-75656190D01*
X181798214Y-75656190D01*
X183322023Y-76132380D02*
X182750595Y-76132380D01*
X183036309Y-76132380D02*
X183036309Y-75132380D01*
X182941071Y-75275238D01*
X182845833Y-75370476D01*
X182750595Y-75418095D01*
X184274404Y-76132380D02*
X183702976Y-76132380D01*
X183988690Y-76132380D02*
X183988690Y-75132380D01*
X183893452Y-75275238D01*
X183798214Y-75370476D01*
X183702976Y-75418095D01*
X182893452Y-79772380D02*
X182322023Y-79772380D01*
X182607738Y-79772380D02*
X182607738Y-78772380D01*
X182512500Y-78915238D01*
X182417261Y-79010476D01*
X182322023Y-79058095D01*
X183322023Y-79772380D02*
X183322023Y-78772380D01*
X183417261Y-79391428D02*
X183702976Y-79772380D01*
X183702976Y-79105714D02*
X183322023Y-79486666D01*
%TO.C,R10*%
X140344642Y-148272380D02*
X140011309Y-147796190D01*
X139773214Y-148272380D02*
X139773214Y-147272380D01*
X140154166Y-147272380D01*
X140249404Y-147320000D01*
X140297023Y-147367619D01*
X140344642Y-147462857D01*
X140344642Y-147605714D01*
X140297023Y-147700952D01*
X140249404Y-147748571D01*
X140154166Y-147796190D01*
X139773214Y-147796190D01*
X141297023Y-148272380D02*
X140725595Y-148272380D01*
X141011309Y-148272380D02*
X141011309Y-147272380D01*
X140916071Y-147415238D01*
X140820833Y-147510476D01*
X140725595Y-147558095D01*
X141916071Y-147272380D02*
X142011309Y-147272380D01*
X142106547Y-147320000D01*
X142154166Y-147367619D01*
X142201785Y-147462857D01*
X142249404Y-147653333D01*
X142249404Y-147891428D01*
X142201785Y-148081904D01*
X142154166Y-148177142D01*
X142106547Y-148224761D01*
X142011309Y-148272380D01*
X141916071Y-148272380D01*
X141820833Y-148224761D01*
X141773214Y-148177142D01*
X141725595Y-148081904D01*
X141677976Y-147891428D01*
X141677976Y-147653333D01*
X141725595Y-147462857D01*
X141773214Y-147367619D01*
X141820833Y-147320000D01*
X141916071Y-147272380D01*
X140868452Y-144632380D02*
X140297023Y-144632380D01*
X140582738Y-144632380D02*
X140582738Y-143632380D01*
X140487500Y-143775238D01*
X140392261Y-143870476D01*
X140297023Y-143918095D01*
X141297023Y-144632380D02*
X141297023Y-143632380D01*
X141392261Y-144251428D02*
X141677976Y-144632380D01*
X141677976Y-143965714D02*
X141297023Y-144346666D01*
%TO.C,R9*%
X140820833Y-142272380D02*
X140487500Y-141796190D01*
X140249404Y-142272380D02*
X140249404Y-141272380D01*
X140630357Y-141272380D01*
X140725595Y-141320000D01*
X140773214Y-141367619D01*
X140820833Y-141462857D01*
X140820833Y-141605714D01*
X140773214Y-141700952D01*
X140725595Y-141748571D01*
X140630357Y-141796190D01*
X140249404Y-141796190D01*
X141297023Y-142272380D02*
X141487500Y-142272380D01*
X141582738Y-142224761D01*
X141630357Y-142177142D01*
X141725595Y-142034285D01*
X141773214Y-141843809D01*
X141773214Y-141462857D01*
X141725595Y-141367619D01*
X141677976Y-141320000D01*
X141582738Y-141272380D01*
X141392261Y-141272380D01*
X141297023Y-141320000D01*
X141249404Y-141367619D01*
X141201785Y-141462857D01*
X141201785Y-141700952D01*
X141249404Y-141796190D01*
X141297023Y-141843809D01*
X141392261Y-141891428D01*
X141582738Y-141891428D01*
X141677976Y-141843809D01*
X141725595Y-141796190D01*
X141773214Y-141700952D01*
X140868452Y-138632380D02*
X140297023Y-138632380D01*
X140582738Y-138632380D02*
X140582738Y-137632380D01*
X140487500Y-137775238D01*
X140392261Y-137870476D01*
X140297023Y-137918095D01*
X141297023Y-138632380D02*
X141297023Y-137632380D01*
X141392261Y-138251428D02*
X141677976Y-138632380D01*
X141677976Y-137965714D02*
X141297023Y-138346666D01*
%TO.C,R6*%
X140820833Y-136772380D02*
X140487500Y-136296190D01*
X140249404Y-136772380D02*
X140249404Y-135772380D01*
X140630357Y-135772380D01*
X140725595Y-135820000D01*
X140773214Y-135867619D01*
X140820833Y-135962857D01*
X140820833Y-136105714D01*
X140773214Y-136200952D01*
X140725595Y-136248571D01*
X140630357Y-136296190D01*
X140249404Y-136296190D01*
X141677976Y-135772380D02*
X141487500Y-135772380D01*
X141392261Y-135820000D01*
X141344642Y-135867619D01*
X141249404Y-136010476D01*
X141201785Y-136200952D01*
X141201785Y-136581904D01*
X141249404Y-136677142D01*
X141297023Y-136724761D01*
X141392261Y-136772380D01*
X141582738Y-136772380D01*
X141677976Y-136724761D01*
X141725595Y-136677142D01*
X141773214Y-136581904D01*
X141773214Y-136343809D01*
X141725595Y-136248571D01*
X141677976Y-136200952D01*
X141582738Y-136153333D01*
X141392261Y-136153333D01*
X141297023Y-136200952D01*
X141249404Y-136248571D01*
X141201785Y-136343809D01*
X140868452Y-133132380D02*
X140297023Y-133132380D01*
X140582738Y-133132380D02*
X140582738Y-132132380D01*
X140487500Y-132275238D01*
X140392261Y-132370476D01*
X140297023Y-132418095D01*
X141297023Y-133132380D02*
X141297023Y-132132380D01*
X141392261Y-132751428D02*
X141677976Y-133132380D01*
X141677976Y-132465714D02*
X141297023Y-132846666D01*
%TO.C,R5*%
X140833333Y-131772380D02*
X140500000Y-131296190D01*
X140261904Y-131772380D02*
X140261904Y-130772380D01*
X140642857Y-130772380D01*
X140738095Y-130820000D01*
X140785714Y-130867619D01*
X140833333Y-130962857D01*
X140833333Y-131105714D01*
X140785714Y-131200952D01*
X140738095Y-131248571D01*
X140642857Y-131296190D01*
X140261904Y-131296190D01*
X141738095Y-130772380D02*
X141261904Y-130772380D01*
X141214285Y-131248571D01*
X141261904Y-131200952D01*
X141357142Y-131153333D01*
X141595238Y-131153333D01*
X141690476Y-131200952D01*
X141738095Y-131248571D01*
X141785714Y-131343809D01*
X141785714Y-131581904D01*
X141738095Y-131677142D01*
X141690476Y-131724761D01*
X141595238Y-131772380D01*
X141357142Y-131772380D01*
X141261904Y-131724761D01*
X141214285Y-131677142D01*
X140880952Y-128132380D02*
X140309523Y-128132380D01*
X140595238Y-128132380D02*
X140595238Y-127132380D01*
X140500000Y-127275238D01*
X140404761Y-127370476D01*
X140309523Y-127418095D01*
X141309523Y-128132380D02*
X141309523Y-127132380D01*
X141404761Y-127751428D02*
X141690476Y-128132380D01*
X141690476Y-127465714D02*
X141309523Y-127846666D01*
%TO.C,R4*%
X140766833Y-125208380D02*
X140433500Y-124732190D01*
X140195404Y-125208380D02*
X140195404Y-124208380D01*
X140576357Y-124208380D01*
X140671595Y-124256000D01*
X140719214Y-124303619D01*
X140766833Y-124398857D01*
X140766833Y-124541714D01*
X140719214Y-124636952D01*
X140671595Y-124684571D01*
X140576357Y-124732190D01*
X140195404Y-124732190D01*
X141623976Y-124541714D02*
X141623976Y-125208380D01*
X141385880Y-124160761D02*
X141147785Y-124875047D01*
X141766833Y-124875047D01*
X140814452Y-121568380D02*
X140243023Y-121568380D01*
X140528738Y-121568380D02*
X140528738Y-120568380D01*
X140433500Y-120711238D01*
X140338261Y-120806476D01*
X140243023Y-120854095D01*
X141243023Y-121568380D02*
X141243023Y-120568380D01*
X141338261Y-121187428D02*
X141623976Y-121568380D01*
X141623976Y-120901714D02*
X141243023Y-121282666D01*
%TO.C,R3*%
X140345833Y-119272380D02*
X140012500Y-118796190D01*
X139774404Y-119272380D02*
X139774404Y-118272380D01*
X140155357Y-118272380D01*
X140250595Y-118320000D01*
X140298214Y-118367619D01*
X140345833Y-118462857D01*
X140345833Y-118605714D01*
X140298214Y-118700952D01*
X140250595Y-118748571D01*
X140155357Y-118796190D01*
X139774404Y-118796190D01*
X140679166Y-118272380D02*
X141298214Y-118272380D01*
X140964880Y-118653333D01*
X141107738Y-118653333D01*
X141202976Y-118700952D01*
X141250595Y-118748571D01*
X141298214Y-118843809D01*
X141298214Y-119081904D01*
X141250595Y-119177142D01*
X141202976Y-119224761D01*
X141107738Y-119272380D01*
X140822023Y-119272380D01*
X140726785Y-119224761D01*
X140679166Y-119177142D01*
X140393452Y-115632380D02*
X139822023Y-115632380D01*
X140107738Y-115632380D02*
X140107738Y-114632380D01*
X140012500Y-114775238D01*
X139917261Y-114870476D01*
X139822023Y-114918095D01*
X140822023Y-115632380D02*
X140822023Y-114632380D01*
X140917261Y-115251428D02*
X141202976Y-115632380D01*
X141202976Y-114965714D02*
X140822023Y-115346666D01*
%TO.C,D9*%
X181291904Y-75396380D02*
X181291904Y-74396380D01*
X181530000Y-74396380D01*
X181672857Y-74444000D01*
X181768095Y-74539238D01*
X181815714Y-74634476D01*
X181863333Y-74824952D01*
X181863333Y-74967809D01*
X181815714Y-75158285D01*
X181768095Y-75253523D01*
X181672857Y-75348761D01*
X181530000Y-75396380D01*
X181291904Y-75396380D01*
X182339523Y-75396380D02*
X182530000Y-75396380D01*
X182625238Y-75348761D01*
X182672857Y-75301142D01*
X182768095Y-75158285D01*
X182815714Y-74967809D01*
X182815714Y-74586857D01*
X182768095Y-74491619D01*
X182720476Y-74444000D01*
X182625238Y-74396380D01*
X182434761Y-74396380D01*
X182339523Y-74444000D01*
X182291904Y-74491619D01*
X182244285Y-74586857D01*
X182244285Y-74824952D01*
X182291904Y-74920190D01*
X182339523Y-74967809D01*
X182434761Y-75015428D01*
X182625238Y-75015428D01*
X182720476Y-74967809D01*
X182768095Y-74920190D01*
X182815714Y-74824952D01*
X185796666Y-72765428D02*
X186558571Y-72765428D01*
X186177619Y-73146380D02*
X186177619Y-72384476D01*
X187463333Y-73146380D02*
X187463333Y-72622571D01*
X187415714Y-72527333D01*
X187320476Y-72479714D01*
X187130000Y-72479714D01*
X187034761Y-72527333D01*
X187463333Y-73098761D02*
X187368095Y-73146380D01*
X187130000Y-73146380D01*
X187034761Y-73098761D01*
X186987142Y-73003523D01*
X186987142Y-72908285D01*
X187034761Y-72813047D01*
X187130000Y-72765428D01*
X187368095Y-72765428D01*
X187463333Y-72717809D01*
X177770476Y-72715428D02*
X178532380Y-72715428D01*
X179437142Y-73048761D02*
X179341904Y-73096380D01*
X179151428Y-73096380D01*
X179056190Y-73048761D01*
X179008571Y-73001142D01*
X178960952Y-72905904D01*
X178960952Y-72620190D01*
X179008571Y-72524952D01*
X179056190Y-72477333D01*
X179151428Y-72429714D01*
X179341904Y-72429714D01*
X179437142Y-72477333D01*
%TO.C,D8*%
X129911904Y-148929380D02*
X129911904Y-147929380D01*
X130150000Y-147929380D01*
X130292857Y-147977000D01*
X130388095Y-148072238D01*
X130435714Y-148167476D01*
X130483333Y-148357952D01*
X130483333Y-148500809D01*
X130435714Y-148691285D01*
X130388095Y-148786523D01*
X130292857Y-148881761D01*
X130150000Y-148929380D01*
X129911904Y-148929380D01*
X131054761Y-148357952D02*
X130959523Y-148310333D01*
X130911904Y-148262714D01*
X130864285Y-148167476D01*
X130864285Y-148119857D01*
X130911904Y-148024619D01*
X130959523Y-147977000D01*
X131054761Y-147929380D01*
X131245238Y-147929380D01*
X131340476Y-147977000D01*
X131388095Y-148024619D01*
X131435714Y-148119857D01*
X131435714Y-148167476D01*
X131388095Y-148262714D01*
X131340476Y-148310333D01*
X131245238Y-148357952D01*
X131054761Y-148357952D01*
X130959523Y-148405571D01*
X130911904Y-148453190D01*
X130864285Y-148548428D01*
X130864285Y-148738904D01*
X130911904Y-148834142D01*
X130959523Y-148881761D01*
X131054761Y-148929380D01*
X131245238Y-148929380D01*
X131340476Y-148881761D01*
X131388095Y-148834142D01*
X131435714Y-148738904D01*
X131435714Y-148548428D01*
X131388095Y-148453190D01*
X131340476Y-148405571D01*
X131245238Y-148357952D01*
X134416666Y-146298428D02*
X135178571Y-146298428D01*
X134797619Y-146679380D02*
X134797619Y-145917476D01*
X136083333Y-146679380D02*
X136083333Y-146155571D01*
X136035714Y-146060333D01*
X135940476Y-146012714D01*
X135750000Y-146012714D01*
X135654761Y-146060333D01*
X136083333Y-146631761D02*
X135988095Y-146679380D01*
X135750000Y-146679380D01*
X135654761Y-146631761D01*
X135607142Y-146536523D01*
X135607142Y-146441285D01*
X135654761Y-146346047D01*
X135750000Y-146298428D01*
X135988095Y-146298428D01*
X136083333Y-146250809D01*
X126390476Y-146248428D02*
X127152380Y-146248428D01*
X128057142Y-146581761D02*
X127961904Y-146629380D01*
X127771428Y-146629380D01*
X127676190Y-146581761D01*
X127628571Y-146534142D01*
X127580952Y-146438904D01*
X127580952Y-146153190D01*
X127628571Y-146057952D01*
X127676190Y-146010333D01*
X127771428Y-145962714D01*
X127961904Y-145962714D01*
X128057142Y-146010333D01*
%TO.C,D7*%
X129911904Y-143087380D02*
X129911904Y-142087380D01*
X130150000Y-142087380D01*
X130292857Y-142135000D01*
X130388095Y-142230238D01*
X130435714Y-142325476D01*
X130483333Y-142515952D01*
X130483333Y-142658809D01*
X130435714Y-142849285D01*
X130388095Y-142944523D01*
X130292857Y-143039761D01*
X130150000Y-143087380D01*
X129911904Y-143087380D01*
X130816666Y-142087380D02*
X131483333Y-142087380D01*
X131054761Y-143087380D01*
X134416666Y-140456428D02*
X135178571Y-140456428D01*
X134797619Y-140837380D02*
X134797619Y-140075476D01*
X136083333Y-140837380D02*
X136083333Y-140313571D01*
X136035714Y-140218333D01*
X135940476Y-140170714D01*
X135750000Y-140170714D01*
X135654761Y-140218333D01*
X136083333Y-140789761D02*
X135988095Y-140837380D01*
X135750000Y-140837380D01*
X135654761Y-140789761D01*
X135607142Y-140694523D01*
X135607142Y-140599285D01*
X135654761Y-140504047D01*
X135750000Y-140456428D01*
X135988095Y-140456428D01*
X136083333Y-140408809D01*
X126390476Y-140406428D02*
X127152380Y-140406428D01*
X128057142Y-140739761D02*
X127961904Y-140787380D01*
X127771428Y-140787380D01*
X127676190Y-140739761D01*
X127628571Y-140692142D01*
X127580952Y-140596904D01*
X127580952Y-140311190D01*
X127628571Y-140215952D01*
X127676190Y-140168333D01*
X127771428Y-140120714D01*
X127961904Y-140120714D01*
X128057142Y-140168333D01*
%TO.C,D6*%
X129856904Y-137626380D02*
X129856904Y-136626380D01*
X130095000Y-136626380D01*
X130237857Y-136674000D01*
X130333095Y-136769238D01*
X130380714Y-136864476D01*
X130428333Y-137054952D01*
X130428333Y-137197809D01*
X130380714Y-137388285D01*
X130333095Y-137483523D01*
X130237857Y-137578761D01*
X130095000Y-137626380D01*
X129856904Y-137626380D01*
X131285476Y-136626380D02*
X131095000Y-136626380D01*
X130999761Y-136674000D01*
X130952142Y-136721619D01*
X130856904Y-136864476D01*
X130809285Y-137054952D01*
X130809285Y-137435904D01*
X130856904Y-137531142D01*
X130904523Y-137578761D01*
X130999761Y-137626380D01*
X131190238Y-137626380D01*
X131285476Y-137578761D01*
X131333095Y-137531142D01*
X131380714Y-137435904D01*
X131380714Y-137197809D01*
X131333095Y-137102571D01*
X131285476Y-137054952D01*
X131190238Y-137007333D01*
X130999761Y-137007333D01*
X130904523Y-137054952D01*
X130856904Y-137102571D01*
X130809285Y-137197809D01*
X134361666Y-134995428D02*
X135123571Y-134995428D01*
X134742619Y-135376380D02*
X134742619Y-134614476D01*
X136028333Y-135376380D02*
X136028333Y-134852571D01*
X135980714Y-134757333D01*
X135885476Y-134709714D01*
X135695000Y-134709714D01*
X135599761Y-134757333D01*
X136028333Y-135328761D02*
X135933095Y-135376380D01*
X135695000Y-135376380D01*
X135599761Y-135328761D01*
X135552142Y-135233523D01*
X135552142Y-135138285D01*
X135599761Y-135043047D01*
X135695000Y-134995428D01*
X135933095Y-134995428D01*
X136028333Y-134947809D01*
X126335476Y-134945428D02*
X127097380Y-134945428D01*
X128002142Y-135278761D02*
X127906904Y-135326380D01*
X127716428Y-135326380D01*
X127621190Y-135278761D01*
X127573571Y-135231142D01*
X127525952Y-135135904D01*
X127525952Y-134850190D01*
X127573571Y-134754952D01*
X127621190Y-134707333D01*
X127716428Y-134659714D01*
X127906904Y-134659714D01*
X128002142Y-134707333D01*
%TO.C,D5*%
X130011904Y-132252380D02*
X130011904Y-131252380D01*
X130250000Y-131252380D01*
X130392857Y-131300000D01*
X130488095Y-131395238D01*
X130535714Y-131490476D01*
X130583333Y-131680952D01*
X130583333Y-131823809D01*
X130535714Y-132014285D01*
X130488095Y-132109523D01*
X130392857Y-132204761D01*
X130250000Y-132252380D01*
X130011904Y-132252380D01*
X131488095Y-131252380D02*
X131011904Y-131252380D01*
X130964285Y-131728571D01*
X131011904Y-131680952D01*
X131107142Y-131633333D01*
X131345238Y-131633333D01*
X131440476Y-131680952D01*
X131488095Y-131728571D01*
X131535714Y-131823809D01*
X131535714Y-132061904D01*
X131488095Y-132157142D01*
X131440476Y-132204761D01*
X131345238Y-132252380D01*
X131107142Y-132252380D01*
X131011904Y-132204761D01*
X130964285Y-132157142D01*
X134516666Y-129621428D02*
X135278571Y-129621428D01*
X134897619Y-130002380D02*
X134897619Y-129240476D01*
X136183333Y-130002380D02*
X136183333Y-129478571D01*
X136135714Y-129383333D01*
X136040476Y-129335714D01*
X135850000Y-129335714D01*
X135754761Y-129383333D01*
X136183333Y-129954761D02*
X136088095Y-130002380D01*
X135850000Y-130002380D01*
X135754761Y-129954761D01*
X135707142Y-129859523D01*
X135707142Y-129764285D01*
X135754761Y-129669047D01*
X135850000Y-129621428D01*
X136088095Y-129621428D01*
X136183333Y-129573809D01*
X126490476Y-129571428D02*
X127252380Y-129571428D01*
X128157142Y-129904761D02*
X128061904Y-129952380D01*
X127871428Y-129952380D01*
X127776190Y-129904761D01*
X127728571Y-129857142D01*
X127680952Y-129761904D01*
X127680952Y-129476190D01*
X127728571Y-129380952D01*
X127776190Y-129333333D01*
X127871428Y-129285714D01*
X128061904Y-129285714D01*
X128157142Y-129333333D01*
%TO.C,D4*%
X129911904Y-125752380D02*
X129911904Y-124752380D01*
X130150000Y-124752380D01*
X130292857Y-124800000D01*
X130388095Y-124895238D01*
X130435714Y-124990476D01*
X130483333Y-125180952D01*
X130483333Y-125323809D01*
X130435714Y-125514285D01*
X130388095Y-125609523D01*
X130292857Y-125704761D01*
X130150000Y-125752380D01*
X129911904Y-125752380D01*
X131340476Y-125085714D02*
X131340476Y-125752380D01*
X131102380Y-124704761D02*
X130864285Y-125419047D01*
X131483333Y-125419047D01*
X134416666Y-123121428D02*
X135178571Y-123121428D01*
X134797619Y-123502380D02*
X134797619Y-122740476D01*
X136083333Y-123502380D02*
X136083333Y-122978571D01*
X136035714Y-122883333D01*
X135940476Y-122835714D01*
X135750000Y-122835714D01*
X135654761Y-122883333D01*
X136083333Y-123454761D02*
X135988095Y-123502380D01*
X135750000Y-123502380D01*
X135654761Y-123454761D01*
X135607142Y-123359523D01*
X135607142Y-123264285D01*
X135654761Y-123169047D01*
X135750000Y-123121428D01*
X135988095Y-123121428D01*
X136083333Y-123073809D01*
X126390476Y-123071428D02*
X127152380Y-123071428D01*
X128057142Y-123404761D02*
X127961904Y-123452380D01*
X127771428Y-123452380D01*
X127676190Y-123404761D01*
X127628571Y-123357142D01*
X127580952Y-123261904D01*
X127580952Y-122976190D01*
X127628571Y-122880952D01*
X127676190Y-122833333D01*
X127771428Y-122785714D01*
X127961904Y-122785714D01*
X128057142Y-122833333D01*
%TO.C,D3*%
X129911904Y-119752380D02*
X129911904Y-118752380D01*
X130150000Y-118752380D01*
X130292857Y-118800000D01*
X130388095Y-118895238D01*
X130435714Y-118990476D01*
X130483333Y-119180952D01*
X130483333Y-119323809D01*
X130435714Y-119514285D01*
X130388095Y-119609523D01*
X130292857Y-119704761D01*
X130150000Y-119752380D01*
X129911904Y-119752380D01*
X130816666Y-118752380D02*
X131435714Y-118752380D01*
X131102380Y-119133333D01*
X131245238Y-119133333D01*
X131340476Y-119180952D01*
X131388095Y-119228571D01*
X131435714Y-119323809D01*
X131435714Y-119561904D01*
X131388095Y-119657142D01*
X131340476Y-119704761D01*
X131245238Y-119752380D01*
X130959523Y-119752380D01*
X130864285Y-119704761D01*
X130816666Y-119657142D01*
X134416666Y-117121428D02*
X135178571Y-117121428D01*
X134797619Y-117502380D02*
X134797619Y-116740476D01*
X136083333Y-117502380D02*
X136083333Y-116978571D01*
X136035714Y-116883333D01*
X135940476Y-116835714D01*
X135750000Y-116835714D01*
X135654761Y-116883333D01*
X136083333Y-117454761D02*
X135988095Y-117502380D01*
X135750000Y-117502380D01*
X135654761Y-117454761D01*
X135607142Y-117359523D01*
X135607142Y-117264285D01*
X135654761Y-117169047D01*
X135750000Y-117121428D01*
X135988095Y-117121428D01*
X136083333Y-117073809D01*
X126390476Y-117071428D02*
X127152380Y-117071428D01*
X128057142Y-117404761D02*
X127961904Y-117452380D01*
X127771428Y-117452380D01*
X127676190Y-117404761D01*
X127628571Y-117357142D01*
X127580952Y-117261904D01*
X127580952Y-116976190D01*
X127628571Y-116880952D01*
X127676190Y-116833333D01*
X127771428Y-116785714D01*
X127961904Y-116785714D01*
X128057142Y-116833333D01*
%TO.C,X1*%
D14*
X150482380Y-117671904D02*
X151015714Y-118471904D01*
X151015714Y-117671904D02*
X150482380Y-118471904D01*
X151739523Y-118471904D02*
X151282380Y-118471904D01*
X151510952Y-118471904D02*
X151510952Y-117671904D01*
X151434761Y-117786190D01*
X151358571Y-117862380D01*
X151282380Y-117900476D01*
%TO.C,U4*%
D13*
X174238095Y-79352380D02*
X174238095Y-80161904D01*
X174285714Y-80257142D01*
X174333333Y-80304761D01*
X174428571Y-80352380D01*
X174619047Y-80352380D01*
X174714285Y-80304761D01*
X174761904Y-80257142D01*
X174809523Y-80161904D01*
X174809523Y-79352380D01*
X175714285Y-79685714D02*
X175714285Y-80352380D01*
X175476190Y-79304761D02*
X175238095Y-80019047D01*
X175857142Y-80019047D01*
%TO.C,R8*%
X158619833Y-72292380D02*
X158286500Y-71816190D01*
X158048404Y-72292380D02*
X158048404Y-71292380D01*
X158429357Y-71292380D01*
X158524595Y-71340000D01*
X158572214Y-71387619D01*
X158619833Y-71482857D01*
X158619833Y-71625714D01*
X158572214Y-71720952D01*
X158524595Y-71768571D01*
X158429357Y-71816190D01*
X158048404Y-71816190D01*
X159191261Y-71720952D02*
X159096023Y-71673333D01*
X159048404Y-71625714D01*
X159000785Y-71530476D01*
X159000785Y-71482857D01*
X159048404Y-71387619D01*
X159096023Y-71340000D01*
X159191261Y-71292380D01*
X159381738Y-71292380D01*
X159476976Y-71340000D01*
X159524595Y-71387619D01*
X159572214Y-71482857D01*
X159572214Y-71530476D01*
X159524595Y-71625714D01*
X159476976Y-71673333D01*
X159381738Y-71720952D01*
X159191261Y-71720952D01*
X159096023Y-71768571D01*
X159048404Y-71816190D01*
X159000785Y-71911428D01*
X159000785Y-72101904D01*
X159048404Y-72197142D01*
X159096023Y-72244761D01*
X159191261Y-72292380D01*
X159381738Y-72292380D01*
X159476976Y-72244761D01*
X159524595Y-72197142D01*
X159572214Y-72101904D01*
X159572214Y-71911428D01*
X159524595Y-71816190D01*
X159476976Y-71768571D01*
X159381738Y-71720952D01*
X157715071Y-75932380D02*
X157143642Y-75932380D01*
X157429357Y-75932380D02*
X157429357Y-74932380D01*
X157334119Y-75075238D01*
X157238880Y-75170476D01*
X157143642Y-75218095D01*
X158334119Y-74932380D02*
X158429357Y-74932380D01*
X158524595Y-74980000D01*
X158572214Y-75027619D01*
X158619833Y-75122857D01*
X158667452Y-75313333D01*
X158667452Y-75551428D01*
X158619833Y-75741904D01*
X158572214Y-75837142D01*
X158524595Y-75884761D01*
X158429357Y-75932380D01*
X158334119Y-75932380D01*
X158238880Y-75884761D01*
X158191261Y-75837142D01*
X158143642Y-75741904D01*
X158096023Y-75551428D01*
X158096023Y-75313333D01*
X158143642Y-75122857D01*
X158191261Y-75027619D01*
X158238880Y-74980000D01*
X158334119Y-74932380D01*
X159286500Y-74932380D02*
X159381738Y-74932380D01*
X159476976Y-74980000D01*
X159524595Y-75027619D01*
X159572214Y-75122857D01*
X159619833Y-75313333D01*
X159619833Y-75551428D01*
X159572214Y-75741904D01*
X159524595Y-75837142D01*
X159476976Y-75884761D01*
X159381738Y-75932380D01*
X159286500Y-75932380D01*
X159191261Y-75884761D01*
X159143642Y-75837142D01*
X159096023Y-75741904D01*
X159048404Y-75551428D01*
X159048404Y-75313333D01*
X159096023Y-75122857D01*
X159143642Y-75027619D01*
X159191261Y-74980000D01*
X159286500Y-74932380D01*
X160048404Y-75932380D02*
X160048404Y-74932380D01*
X160143642Y-75551428D02*
X160429357Y-75932380D01*
X160429357Y-75265714D02*
X160048404Y-75646666D01*
%TO.C,R7*%
X166747833Y-75340380D02*
X166414500Y-74864190D01*
X166176404Y-75340380D02*
X166176404Y-74340380D01*
X166557357Y-74340380D01*
X166652595Y-74388000D01*
X166700214Y-74435619D01*
X166747833Y-74530857D01*
X166747833Y-74673714D01*
X166700214Y-74768952D01*
X166652595Y-74816571D01*
X166557357Y-74864190D01*
X166176404Y-74864190D01*
X167081166Y-74340380D02*
X167747833Y-74340380D01*
X167319261Y-75340380D01*
X165843071Y-78980380D02*
X165271642Y-78980380D01*
X165557357Y-78980380D02*
X165557357Y-77980380D01*
X165462119Y-78123238D01*
X165366880Y-78218476D01*
X165271642Y-78266095D01*
X166462119Y-77980380D02*
X166557357Y-77980380D01*
X166652595Y-78028000D01*
X166700214Y-78075619D01*
X166747833Y-78170857D01*
X166795452Y-78361333D01*
X166795452Y-78599428D01*
X166747833Y-78789904D01*
X166700214Y-78885142D01*
X166652595Y-78932761D01*
X166557357Y-78980380D01*
X166462119Y-78980380D01*
X166366880Y-78932761D01*
X166319261Y-78885142D01*
X166271642Y-78789904D01*
X166224023Y-78599428D01*
X166224023Y-78361333D01*
X166271642Y-78170857D01*
X166319261Y-78075619D01*
X166366880Y-78028000D01*
X166462119Y-77980380D01*
X167414500Y-77980380D02*
X167509738Y-77980380D01*
X167604976Y-78028000D01*
X167652595Y-78075619D01*
X167700214Y-78170857D01*
X167747833Y-78361333D01*
X167747833Y-78599428D01*
X167700214Y-78789904D01*
X167652595Y-78885142D01*
X167604976Y-78932761D01*
X167509738Y-78980380D01*
X167414500Y-78980380D01*
X167319261Y-78932761D01*
X167271642Y-78885142D01*
X167224023Y-78789904D01*
X167176404Y-78599428D01*
X167176404Y-78361333D01*
X167224023Y-78170857D01*
X167271642Y-78075619D01*
X167319261Y-78028000D01*
X167414500Y-77980380D01*
X168176404Y-78980380D02*
X168176404Y-77980380D01*
X168271642Y-78599428D02*
X168557357Y-78980380D01*
X168557357Y-78313714D02*
X168176404Y-78694666D01*
%TO.C,C2*%
X175056833Y-70927142D02*
X175009214Y-70974761D01*
X174866357Y-71022380D01*
X174771119Y-71022380D01*
X174628261Y-70974761D01*
X174533023Y-70879523D01*
X174485404Y-70784285D01*
X174437785Y-70593809D01*
X174437785Y-70450952D01*
X174485404Y-70260476D01*
X174533023Y-70165238D01*
X174628261Y-70070000D01*
X174771119Y-70022380D01*
X174866357Y-70022380D01*
X175009214Y-70070000D01*
X175056833Y-70117619D01*
X175437785Y-70117619D02*
X175485404Y-70070000D01*
X175580642Y-70022380D01*
X175818738Y-70022380D01*
X175913976Y-70070000D01*
X175961595Y-70117619D01*
X176009214Y-70212857D01*
X176009214Y-70308095D01*
X175961595Y-70450952D01*
X175390166Y-71022380D01*
X176009214Y-71022380D01*
X174009214Y-74567142D02*
X174056833Y-74614761D01*
X174009214Y-74662380D01*
X173961595Y-74614761D01*
X174009214Y-74567142D01*
X174009214Y-74662380D01*
X175009214Y-74662380D02*
X174437785Y-74662380D01*
X174723500Y-74662380D02*
X174723500Y-73662380D01*
X174628261Y-73805238D01*
X174533023Y-73900476D01*
X174437785Y-73948095D01*
X175866357Y-73995714D02*
X175866357Y-74662380D01*
X175437785Y-73995714D02*
X175437785Y-74519523D01*
X175485404Y-74614761D01*
X175580642Y-74662380D01*
X175723500Y-74662380D01*
X175818738Y-74614761D01*
X175866357Y-74567142D01*
X176199690Y-73995714D02*
X176580642Y-73995714D01*
X176342547Y-74662380D02*
X176342547Y-73805238D01*
X176390166Y-73710000D01*
X176485404Y-73662380D01*
X176580642Y-73662380D01*
%TO.C,C1*%
X167001833Y-74821142D02*
X166954214Y-74868761D01*
X166811357Y-74916380D01*
X166716119Y-74916380D01*
X166573261Y-74868761D01*
X166478023Y-74773523D01*
X166430404Y-74678285D01*
X166382785Y-74487809D01*
X166382785Y-74344952D01*
X166430404Y-74154476D01*
X166478023Y-74059238D01*
X166573261Y-73964000D01*
X166716119Y-73916380D01*
X166811357Y-73916380D01*
X166954214Y-73964000D01*
X167001833Y-74011619D01*
X167954214Y-74916380D02*
X167382785Y-74916380D01*
X167668500Y-74916380D02*
X167668500Y-73916380D01*
X167573261Y-74059238D01*
X167478023Y-74154476D01*
X167382785Y-74202095D01*
X166239928Y-71276380D02*
X165668500Y-71276380D01*
X165954214Y-71276380D02*
X165954214Y-70276380D01*
X165858976Y-70419238D01*
X165763738Y-70514476D01*
X165668500Y-70562095D01*
X166858976Y-70276380D02*
X166954214Y-70276380D01*
X167049452Y-70324000D01*
X167097071Y-70371619D01*
X167144690Y-70466857D01*
X167192309Y-70657333D01*
X167192309Y-70895428D01*
X167144690Y-71085904D01*
X167097071Y-71181142D01*
X167049452Y-71228761D01*
X166954214Y-71276380D01*
X166858976Y-71276380D01*
X166763738Y-71228761D01*
X166716119Y-71181142D01*
X166668500Y-71085904D01*
X166620880Y-70895428D01*
X166620880Y-70657333D01*
X166668500Y-70466857D01*
X166716119Y-70371619D01*
X166763738Y-70324000D01*
X166858976Y-70276380D01*
X167620880Y-70609714D02*
X167620880Y-71276380D01*
X167620880Y-70704952D02*
X167668500Y-70657333D01*
X167763738Y-70609714D01*
X167906595Y-70609714D01*
X168001833Y-70657333D01*
X168049452Y-70752571D01*
X168049452Y-71276380D01*
X168382785Y-70609714D02*
X168763738Y-70609714D01*
X168525642Y-71276380D02*
X168525642Y-70419238D01*
X168573261Y-70324000D01*
X168668500Y-70276380D01*
X168763738Y-70276380D01*
%TO.C,U3*%
X190198095Y-98622380D02*
X190198095Y-99431904D01*
X190245714Y-99527142D01*
X190293333Y-99574761D01*
X190388571Y-99622380D01*
X190579047Y-99622380D01*
X190674285Y-99574761D01*
X190721904Y-99527142D01*
X190769523Y-99431904D01*
X190769523Y-98622380D01*
X191150476Y-98622380D02*
X191769523Y-98622380D01*
X191436190Y-99003333D01*
X191579047Y-99003333D01*
X191674285Y-99050952D01*
X191721904Y-99098571D01*
X191769523Y-99193809D01*
X191769523Y-99431904D01*
X191721904Y-99527142D01*
X191674285Y-99574761D01*
X191579047Y-99622380D01*
X191293333Y-99622380D01*
X191198095Y-99574761D01*
X191150476Y-99527142D01*
%TO.C,U1*%
X149304380Y-89661904D02*
X150113904Y-89661904D01*
X150209142Y-89614285D01*
X150256761Y-89566666D01*
X150304380Y-89471428D01*
X150304380Y-89280952D01*
X150256761Y-89185714D01*
X150209142Y-89138095D01*
X150113904Y-89090476D01*
X149304380Y-89090476D01*
X150304380Y-88090476D02*
X150304380Y-88661904D01*
X150304380Y-88376190D02*
X149304380Y-88376190D01*
X149447238Y-88471428D01*
X149542476Y-88566666D01*
X149590095Y-88661904D01*
%TD*%
M02*
